<?xml version="1.0" encoding="UTF-8"?>
<svg id="Layer_1" xmlns="http://www.w3.org/2000/svg" version="1.1" viewBox="0 0 500 166">
  <!-- Generator: Adobe Illustrator 30.4.0, SVG Export Plug-In . SVG Version: 2.1.4 Build 226)  -->
  <polygon points="13.8 97.4 17.7 100.9 22.6 98.2 20.1 103 24.1 106.5 18.6 106 16.2 110.9 15.3 105.7 9.9 105.3 14.7 102.6 13.8 97.4" fill="#fff" fill-rule="evenodd"/>
  <polygon points="145.8 85.8 141.9 89.3 137 86.5 139.5 91.4 135.6 94.9 141 94.4 143.4 99.3 144.3 94.1 149.8 93.6 144.9 90.9 145.8 85.8" fill="#fff" fill-rule="evenodd"/>
  <path d="M86.3,2.1c44.7,0,80.9,36.2,80.9,80.9s-36.2,80.9-80.9,80.9S5.3,127.7,5.3,83,41.6,2.1,86.3,2.1" fill="#fff" fill-rule="evenodd"/>
  <path d="M86.3,29.5c29.7,0,53.8,24.1,53.8,53.8s-24.1,53.8-53.8,53.8-53.8-24.1-53.8-53.8,24.1-53.8,53.8-53.8" fill="#fdc900" fill-rule="evenodd"/>
  <path d="M86.3,137.3c-29.7,0-53.9-24.2-53.9-54s24.2-53.9,53.9-53.9,53.9,24.2,53.9,53.9-24.2,54-53.9,54ZM86.3,29.6c-29.6,0-53.7,24.1-53.7,53.7s24.1,53.7,53.7,53.7,53.7-24.1,53.7-53.7-24.1-53.7-53.7-53.7Z" fill="#151616"/>
  <g>
    <path d="M492.9,128l-8.3,20.8c-1.5,3.7-3.5,5.6-6.2,5.6s-1.4,0-1.9-.2v-2.6c.6.2,1.2.3,1.7.3,1.4,0,2.5-.9,3.3-2.6l1.4-3.4-7-17.9h3.2l4.9,13.8c0,.2.2.6.4,1.4h.1c0-.3.2-.7.3-1.3l5.1-13.9h3ZM473.1,146h-2.9v-10.3c0-2-.3-3.4-.9-4.3-.6-.9-1.6-1.3-3.1-1.3s-2.3.6-3.1,1.7c-.9,1.1-1.3,2.5-1.3,4v10.2h-2.9v-10.7c0-3.5-1.4-5.3-4.1-5.3s-2.3.5-3.1,1.6c-.8,1.1-1.2,2.4-1.2,4.1v10.2h-2.9v-18h2.9v2.8h0c1.3-2.2,3.1-3.3,5.6-3.3s2.3.3,3.2,1c.9.7,1.5,1.6,1.9,2.7,1.3-2.5,3.3-3.7,6-3.7,3.9,0,5.9,2.4,5.9,7.3v11.1ZM440.3,135.3c0-1.7-.4-3-1.2-3.9-.8-.9-1.9-1.4-3.3-1.4s-2.5.5-3.5,1.5c-.9,1-1.5,2.2-1.8,3.8h9.7ZM443.3,137.7h-12.7c0,2,.6,3.5,1.6,4.6,1,1.1,2.4,1.6,4.2,1.6s3.9-.7,5.6-2v2.7c-1.6,1.2-3.7,1.7-6.3,1.7s-4.5-.8-6-2.4c-1.5-1.6-2.2-3.9-2.2-6.9s.8-5.1,2.4-6.8c1.6-1.8,3.6-2.6,5.9-2.6s4.2.8,5.5,2.3c1.3,1.5,1.9,3.6,1.9,6.3v1.5ZM420.1,137.9v-2.7c0-1.4-.5-2.7-1.4-3.7-1-1-2.2-1.5-3.6-1.5s-3.1.6-4.1,1.9c-1,1.3-1.5,3.1-1.5,5.3s.5,3.7,1.4,4.9c1,1.2,2.3,1.8,3.9,1.8s2.9-.6,3.9-1.7c1-1.2,1.5-2.6,1.5-4.4M423,146h-2.9v-3.1h0c-1.3,2.3-3.4,3.5-6.2,3.5s-4.1-.8-5.4-2.4c-1.4-1.6-2-3.8-2-6.6s.7-5.3,2.2-7.1c1.5-1.8,3.5-2.7,6-2.7s4.3,1,5.4,2.9h0v-11.1h2.9v26.6ZM399.4,136.9l-4.3.6c-1.3.2-2.3.5-3,1-.7.5-1,1.3-1,2.5s.3,1.6.9,2.1c.6.6,1.5.8,2.5.8s2.6-.5,3.5-1.5c.9-1,1.4-2.3,1.4-3.8v-1.8ZM402.3,146h-2.9v-2.8h0c-1.3,2.2-3.1,3.2-5.5,3.2s-3.2-.5-4.2-1.4c-1-.9-1.5-2.2-1.5-3.8,0-3.4,2-5.3,5.9-5.9l5.4-.8c0-3.1-1.2-4.6-3.7-4.6s-4.1.7-5.9,2.2v-2.9c1.8-1.1,3.8-1.7,6.1-1.7,4.2,0,6.3,2.2,6.3,6.7v11.7ZM385.1,145.2c-1.4.8-3,1.2-4.9,1.2s-4.6-.8-6.2-2.5c-1.6-1.7-2.4-3.8-2.4-6.5s.9-5.3,2.5-7.1c1.7-1.8,4-2.7,6.8-2.7s3,.3,4.2.9v2.9c-1.3-.9-2.8-1.4-4.3-1.4s-3.3.7-4.5,2c-1.2,1.3-1.8,3-1.8,5.2s.6,3.8,1.7,5c1.1,1.2,2.6,1.8,4.4,1.8s3-.5,4.4-1.6v2.7ZM362.6,136.3l-3.9-10.7c-.1-.4-.3-.9-.4-1.7h0c-.1.7-.2,1.3-.4,1.7l-3.9,10.7h8.7ZM369.5,146h-3.3l-2.7-7.1h-10.7l-2.5,7.1h-3.3l9.7-25.2h3.1l9.7,25.2Z" fill="#fff" fill-rule="evenodd"/>
    <path d="M356.9,80.9c0-.8.2-1.4.8-1.9.6-.5.9-1,.9-1.5.5-.6,1.2-1.6,2.1-3.1.9-1.5,1.3-2.3,1.3-2.6,0-.1-.1-.1-.2-.1h-.1s-.4.4-.4.4h-.9c0,.1-.9.4-.9.4l-.8-.2-.6.3h-1c-.5.2-1,.4-1.3.7-.3.3-1,.7-2,1.2-1,.5-1.9,1.2-2.6,2-.7.8-1.3,1.3-1.7,1.4-.1.6-.7,1.5-1.8,2.7-.7.5-1.1,1.2-1.1,2.1-.7.9-1,1.4-1,1.5v.9c-.4.3-.7.6-1,.8-.4.2-.5.6-.5,1.2,0,.6,0,1.1-.3,1.7-.3.5-.4.9-.3,1.2.4,1.6.9,2.4,1.5,2.2.3,0,.8-.4,1.6-.9.8-.5,1.2-.9,1.3-1.1.1-.2.3-.4.7-.6l.8-.7c.1-.2.2-.3.4-.4.2,0,.3-.2.4-.4.1-.2.4-.5.8-.8.4-.3.6-.7.8-1.1.5-.5,1.3-1.2,2.4-2.2l.9-1c.7-.5,1-.9,1.1-1.2.1-.3.4-.6.8-.9M373.4,77l.6-.9c.5-.1.7-.4.7-.9,0-.5.3-.9.8-1.3.6-.4,1-1.1,1.3-2,.4-.9.8-1.5,1.4-1.6.2,0,.5,0,.8.3.3.3.5.5.6.7.3,1.1.2,2.3-.2,3.6v1.4c.1,0,0,.7,0,.7-.4.4-.7.7-.8,1.1,0,.3-.4.8-.9,1.4l-.3.8c-.7.4-1.1.9-1.2,1.5-.1.6-.4,1-.8,1.1-.4.2-.8.6-1.2,1.3-.3.2-.7.5-1.1.7v.5c-.2.4-.7.8-1.4,1.2-.7.4-1.2.7-1.5.9-.3.3-.5.4-.7.4-.6.1-1.2.2-1.8,0-.6-.1-1.2-.2-1.8,0-.2-.2-.4-.3-.5-.6,0-.2-.3-.5-.7-.8-.4-.3-.7-.8-.8-1.5v-1c0-.1-.2-.3-.4-.4-.2-.2-.3-.3-.4-.5,0-.1,0-.2,0-.3,0,0,0-.2,0-.3,0-.2-.1-.3-.2-.5-.1-.2-.2-.3-.2-.5l-.3-2.5c0-.2-.1-.3-.3-.2-.1,0-.3.2-.6.7-.3.4-.6.7-1.1.8-.2.3-.3.7-.4,1.4-.2.4-.4.8-.8,1.1v.3c-.1.3-.3.5-.7.8-.4.2-.7.5-.8.8l-.4.6h-1c0,.2-.2.5-.3,1.1-.2.6-.5,1.1-.9,1.5l-3.1,4c-.3.4-.8.8-1.5,1.4l-.2.4c-2.2,2.4-3.9,3.7-5,3.9-.9.2-2,.2-3.3,0-1.3-.2-2.1-.7-2.4-1.3l-1-1.9c-.4-.4-.7-1-.9-1.8,0-.4-.1-.7,0-.8v-.3c0,0-.6-1.6-.6-1.6,0-.4.2-.7.8-.8l-.4-1.3c0-.1.2-.7.5-1.8.4-1,.6-1.7.8-1.8l.3-.8c-.1-.4,0-.9.4-1.4.4-.6.7-1.1.9-1.7.2-.5.6-1.2,1.3-1.9l1.1-1.8c.9-1.4,1.9-2.7,3.1-3.7.2-.1.5-.6,1-1.3.5-.7,1.1-1.3,1.8-1.8.7-.5,1.4-1,2-1.6.6-.6,1.2-1,1.6-1.1h.4c.1-.1.9-.7,2.3-1.9h.3c.1-.1.5,0,1,0h0s.7-.6.7-.6c.1,0,.3-.2.5-.2,2.1-.5,3.5.7,4.4,3.5.2.6.4.8.7.8.3,0,.7-.8,1-2.1.3-1.3,1.5-2.3,3.5-2.7,1.4-.3,2.4.4,2.8,2.2.5,2.2,0,4.4-1.5,6.8,0,.3,0,.6,0,1l-.2,2.2h0c0,.3,0,.6-.2,1-.2.4-.3.8-.2,1l.4,1.2v1.4c.3.6.5,1,.8,1.2,1-.5,1.7-1.1,2-1.9.3-.7.6-1.1.8-1.3l.4-.3c.2-.6.4-1.1.8-1.5M327.2,91h.2s.5,0,.5,0c0,0,.1,0,.2-.2-.1-.6,0-1.1.5-1.6,0-.7.3-1.2.8-1.7.5-.5,1.3-1.2,2.4-2.3l1-1.4.5-.4.3-.6c.3-.5.6-.8.9-.9.5-.1.8,0,.9.4l-.2,1.1.6,1.6c.1.6,0,1.2-.3,1.7-.3.6-.8,1.4-1.4,2.5l-1.9,3.3-1.2,1c-.3.3-.5.6-.7.9l-1.6,2.1c.1.5,0,.8-.2,1.2l-.8.2-.4.3c0,.7-.6,1.4-1.6,2.3l-.6.7c-.2.3-.4.4-.6.5h-1.4c0,.1-.9.5-.9.5-.3,0-.7,0-1.2-.1-.5-.2-1-.3-1.5-.3-.5,0-1.2-.5-2.2-1.4-1-.9-1.5-1.5-1.7-1.9,0-.1-.2-.3-.4-.6-.2-.3-.3-.4-.4-.5,0,0,0-.4.2-1.1h0c0-.2-.2-.4-.4-.7-.3-.3-.5-.8-.6-1.3,0-.3-.3-.7-.6-1.1.2-.3.3-.6.3-.7,0-.1-.1-.3-.3-.5-.2-.2-.3-.4-.3-.5l-.3-2.5-.5-1.2-.2-1.2c-.2-.7-.5-1-1.1-.8-.3,0-.6.3-.9.8l-.3.2c-.8.6-1.3,1.1-1.6,1.5-.3.4-.6.6-1,.7-.2.2-.5.5-1,.8l-.3.4c-.1.2-.3.4-.7.8,0,0-.5.8-1.5,2.1-1,1.3-1.9,2.5-2.7,3.6-.8,1.1-1.4,1.8-1.8,2-.4.2-.6.7-.4,1.4,0,.1-.2.5-.7,1,0,0-.3.5-.8,1.3-.6-.3-1-.4-1-.4-.4.1-.6.7-.6,1.9-.1.5-.6.9-1.4,1.2,0,0-.1.3-.2.8l-.2.2h-.5c0,.1-.3.4-.6.8-.3.5-.6.8-.9,1-.2,1-.5,1.5-.8,1.6-.1,0-.3,0-.6,0-.3,0-.6-.1-1-.1-.4,0-.9-.3-1.5-.9-.6-.6-1-1.2-1.1-1.7-.9-3.7-.6-5.9.7-6.5v-.2c0,0,0-.4,0-.4-.1-.4,0-.8.4-1.1.3-.3.6-.7.9-1.4.3-.6.5-1,.6-1.1l.6-.2c.1,0,.1-.4,0-1.1,0-.2,0-.4.1-.6.1-.2.2-.5.1-.8,0-.3,0-.9.4-1.7.3-.8.4-1.3.4-1.4v-.2c-.8,1-1.3,1.5-1.7,1.7-.3.1-.7.7-1.2,1.8h-.8c-1.2,1.4-1.9,2.2-2.2,2.4-.3.2-.6.7-.8,1.4,0,.2,0,.3-.3.5-.2.1-.6.5-1.1,1.1h-.3c-.8.3-1.4-.2-1.7-1.4l.4-3.1c0-1,.6-1.9,1.6-2.8,1-.9,1.8-1.7,2.4-2.4.6-.7,1.3-1.2,2.1-1.4l.2-.6c1-.7,1.6-1.5,1.8-2.6.2-1,.6-1.6,1.3-1.8,1.8-.4,3.4,0,4.6,1.1,1.3,1.1,2,2.1,2.2,2.9l.4,1.3c.1.5.2,1.1.2,2-.3.7-.4,1.2-.3,1.5,0,.3.2.4.6.3.2,0,.4-.2.7-.6.3-.3.6-.7.9-1,.4-.3.6-.6.6-.8.1-.9.6-1.6,1.3-2.1.8-.5,1.2-.9,1.4-1.1l.4-.5.2-.8c.8-.6,1.3-1.1,1.5-1.5.2-.4.6-.7,1-.9.5-.2,1-.6,1.5-1.3l.7-.4.6-.6c0,0,.2-.2.5-.4.3-.2.8-.5,1.3-.9.6-.4,1-.6,1.2-.7,1.7-.4,3.2,0,4.5,1.1,1.3,1.1,2.1,2.1,2.2,2.9v.9c.1,0,.6,1.3.6,1.3v.2s.3,2.8.3,2.8l.3.9c.4,1.6.3,2.7-.2,3.5-.2.1-.2.3-.1.6v.4c.1,0,1.6,1.9,1.6,1.9.5.7.8,1,1,.9l1.5-.8c.4-.2.7-.7.9-1.3.2-.2.6-.7,1.1-1.5,0-.6.3-.9.8-1M260.4,103.4c0-.8.2-1.4.8-1.9.6-.6.9-1,.9-1.5.5-.6,1.2-1.7,2.1-3.1.9-1.5,1.3-2.3,1.3-2.6,0-.1-.1-.1-.2-.1h-.1s-.4.4-.4.4h-.9c0,.1-.9.4-.9.4l-.8-.2-.6.3h-1.1c-.5.2-1,.4-1.3.7-.3.3-1,.7-2,1.2-1,.5-1.9,1.2-2.6,2-.7.8-1.3,1.3-1.7,1.4-.1.6-.7,1.5-1.8,2.7-.7.5-1.1,1.2-1.1,2.1-.7.9-1,1.4-1,1.5v.9c-.4.3-.7.6-1,.8-.4.2-.5.6-.5,1.2,0,.6,0,1.1-.3,1.7-.3.5-.4.9-.3,1.2.4,1.6.9,2.4,1.5,2.2.3,0,.8-.4,1.6-.9.8-.5,1.2-.9,1.3-1.1.1-.2.3-.4.7-.6l.8-.7c.1-.2.2-.3.4-.4.2,0,.3-.2.4-.4.1-.2.4-.5.8-.8.4-.3.6-.7.8-1.1.5-.5,1.3-1.2,2.4-2.2l.9-1c.6-.5,1-.9,1.1-1.2.1-.3.4-.6.8-.9M276.9,99.5l.6-.9c.5-.1.7-.4.7-.9,0-.5.3-.9.8-1.3.5-.4,1-1.1,1.3-2,.4-.9.8-1.5,1.4-1.6.2,0,.5,0,.8.3.3.3.5.5.6.7.3,1.1.2,2.3-.2,3.6v1.4c.1,0,0,.7,0,.7-.4.4-.7.7-.8,1.1,0,.3-.4.8-.9,1.4l-.3.8c-.7.4-1.1.9-1.2,1.5-.1.6-.4,1-.8,1.1-.4.2-.8.6-1.2,1.3-.3.2-.7.5-1.1.7v.5c-.2.4-.7.8-1.4,1.2-.7.4-1.2.7-1.5,1-.3.3-.5.4-.7.4-.6.1-1.2.2-1.8,0-.6-.1-1.2-.2-1.8,0-.2-.2-.4-.3-.5-.6,0-.2-.3-.5-.7-.8-.4-.3-.7-.8-.8-1.5v-1c0-.1-.2-.3-.4-.4-.2-.2-.3-.3-.4-.5,0-.1,0-.2,0-.3,0,0,0-.2,0-.3,0-.2-.1-.3-.2-.5-.1-.2-.2-.3-.2-.5l-.3-2.5c0-.2-.1-.3-.3-.2-.1,0-.3.2-.6.7-.3.4-.6.7-1.1.8-.2.3-.3.7-.4,1.4-.2.4-.4.8-.8,1.1v.4c-.1.3-.3.5-.7.8-.4.2-.7.5-.8.8l-.4.6h-1c0,.2-.2.5-.3,1.1-.2.6-.5,1.1-.9,1.5l-3.1,4c-.3.4-.8.8-1.5,1.4l-.2.4c-2.2,2.4-3.9,3.7-5,3.9-.9.2-2,.2-3.3,0-1.3-.2-2.1-.7-2.4-1.3l-1-1.9c-.4-.4-.7-1-.9-1.8,0-.4-.1-.7,0-.8v-.3c0,0-.6-1.6-.6-1.6,0-.4.2-.7.8-.8l-.4-1.3c0-.1.2-.7.5-1.8.4-1.1.6-1.7.8-1.8l.3-.8c-.1-.4,0-.9.4-1.4.4-.6.7-1.1.9-1.7.2-.5.6-1.2,1.3-1.9l1.1-1.8c.9-1.4,1.9-2.7,3.1-3.7.2-.1.5-.6,1-1.3.5-.7,1.1-1.3,1.8-1.8.7-.5,1.4-1,2-1.6.7-.6,1.2-1,1.6-1.1h.4c.1-.1.9-.7,2.3-1.9h.3c.1-.1.5,0,1,0h0s.7-.6.7-.6c.1-.1.3-.2.5-.2,2.1-.5,3.5.7,4.4,3.5.2.6.4.8.7.8.3,0,.7-.8,1-2.1.3-1.3,1.5-2.3,3.5-2.7,1.4-.3,2.4.4,2.8,2.2.5,2.2,0,4.4-1.5,6.8,0,.3,0,.6,0,1l-.2,2.2h0c0,.3,0,.6-.2,1-.2.4-.3.8-.2,1l.4,1.2v1.4c.3.6.5,1,.8,1.2,1-.5,1.7-1.1,2-1.9.3-.7.6-1.1.8-1.3l.4-.3c.2-.6.4-1.1.8-1.5M196.3,77.1l.3-.6c.2-.4.4-.7.9-.8.4-.2.8-.4,1.2-.7l6.8-3.7c.7-.3,1.5-.7,2.5-1l1.5-.9c.4-.3,1-.5,1.8-.7l1.6-.7c.1,0,.3,0,.4.3.2.2.3.3.3.3,1.3-1.4,2.2-2.1,2.6-2.2h.1s1.3,0,1.3,0c.2,0,.4-.2.6-.6l.2-.2c.8.2,1.2.2,1.3.2.5-.1,1-.4,1.6-.7.6-.3,1.2-.6,1.7-.7l1.6-.3,3.4-1c.2,0,.4,0,.7.2l1-.4c1-.2,1.9-.3,2.9-.3,1,0,2.2,0,3.6-.2,1.4-.2,2.4,0,3.2.7h.9c0,0,.6,0,.6,0,.9-.2,1.5,0,1.8.7.3.3.8.7,1.5.9l.9.9c0,.2,0,.4,0,.6,0,.2.5.3,1.3.4h.2c.1.5.6,1,1.3,1.6.7.5,1.3,1.6,1.7,3.4l.3,1.2.8,2.5c.4,1.8.4,4,0,6.7-.5,2.7-1.2,4.7-2.1,6,0,.9-.3,1.5-.6,1.6-.9,1.3-1.5,2-1.9,2.1,0,0-.2,0-.3,0-.3.9-.8,1.8-1.7,2.6-.9.8-1.4,1.3-1.7,1.5-.3.2-1,.6-2.1,1.4h-1.3c-.4.6-.7.9-.9,1l-2.4,1.7c-2.1,1.1-3.5,1.8-4.2,1.9h-1.3c-.2,0-.4.3-.7.8l-.9.4c-.3-.2-.9-.2-2,0-.4.4-.7.7-1,.7l-2.1.8c-.3,0-.5-.1-.7-.6l-.4.3v.7c-.2.1-.3.2-.5.2l-2.7.3-1.2.6h-2.1c0,0-1,.4-1,.4l-.9-.2-.8.3h-.8s-.9.4-.9.4h-.2c0,.2-.2.5-.3.7-.2.2-.4.6-.6,1.2-.6.8-.9,1.7-.9,2.6,0,.9-.5,1.6-1.4,1.9,0,.2,0,.3-.2.6,0,0,.2.3.5.8v.2c.2.8-.2,1.8-1.3,2.9,0,1.2,0,2.2-.1,2.8-.1.6-.2,1.1-.2,1.5,0,.4-.2.7-.6,1.1v.3c-.1,0,.2,1.4.2,1.4,0,0,0,.3-.1.7-.1.4-.3,1-.5,1.7l-.2.6v1.7c-.6.6-.8,1.4-.6,2.2l.8,2.8c.1.5,0,1.1-.6,1.8-.5.7-1.1,1.1-1.7,1.2-1.6.4-3-.3-4-2.2l-.4-.3c-.8-.4-1.4-1.2-1.6-2.3-.3-1.3,0-3.4.7-6.3l1.9-6.7c0,0,.4-.5,1.1-1.2h.6c.1,0,.1-.2,0-.4,0,0-.3-.5-.9-1.3v-.2c-.1-.3,0-.5.2-.6l.3-.5-.3-1c.4-1,.6-1.7.5-2l.2-1.3c.2-.8.3-1.3.5-1.4-.3-1.3-.1-2.4.5-3.2l.2-.9c0-.2.2-.4.6-.5.3-.1.5-.2.5-.3,0-.1-.1-.3-.3-.5-.1-.2-.2-.3-.3-.5,0-.3,0-.8.3-1.4.3-.6.5-1,.6-1l.8.3v-.3c-.5-.2-.7-.4-.8-.6,0-.3,0-.7.2-1.2.2-.5.3-.9.3-1.1l.3-.6c0,0,.1-.5.2-1.5,0-1,.3-1.5.8-1.6v-.5c-.2-.3,0-1.2.5-2.7l1.6-5.3c0-.4.1-1,.4-1.9l-.4-1.2c-.1-.5,0-1.4.3-2.7.3-1.3.7-2,1.1-2,.2,0,.3,0,.4,0,0,0,.2,0,.2,0l.8-.3,1.9,1.1c.5.3.9.8,1.2,1.8l.3.3c1.2,1.3,1.9,2.3,2,2.9.2.8.2,1.4.2,1.9,0,.5-.5,1.1-1.2,1.8-.6,1.1-.9,2.1-1,2.9,0,.8-.2,1.5-.6,2.2-.3.8-.5,1.8-.6,3.1,0,1.3-.5,2.4-1.3,3.2.1.9.2,1.7.1,2.4h0c0,.3.2.4.5.3l1.6-.6c.2,0,.5,0,.7,0,.3,0,.6,0,.9,0,.3,0,.6-.3.9-.6h.3c.1-.1.6,0,1.4.1h.2c.1-.5.3-.7.5-.8l2-.3.9-.3c.4-.4,1.1-.7,2.1-1,1-.3,1.6-.5,2-.8.3-.3.7-.4.9-.5.3-.1.6-.3,1.1-.7.4-.3.8-.5,1.1-.6.8-.2,1.8-.8,2.9-1.8.5,0,.8,0,.8,0,.6-.1,1.1-.5,1.4-1.2.3-.6.7-1,1.1-1.2l2.7-2.1c.2-.2.7-.8,1.4-2l.8-.8.4-1c0,0,.3-.3.8-.8-.1,0-.3,0-.4-.2l.8-1.5c-.1-.3-.2-.5-.2-.6v-.2c.2-.6.4-1,.7-1.3.3-.3.4-.5.4-.6l-.6-.5c.4-.6.5-.9.5-1.1l-.5-1.4-.4-2.6c-.3-1.3-.6-2.1-.8-2.5-.3-.3-.5-.7-.6-1.1-.9-1.1-2-1.9-3.3-2.4-.1,0-.2-.2-.2-.3l-.2-.5v-.2s-1.6.6-1.6.6c0,0-.2-.1-.5-.4-.2-.3-.5-.4-.8-.3l-.6.5h-.1c-.2,0-.9-.1-2-.5-.2,0-.7,0-1.3.2h-.8c-.2-.2-.4-.2-.5-.2h-.3c0,0-1.1.5-1.1.5l-2.6.4h-1.6c-.5.6-.8.9-1,.9-.1,0-.5,0-1,0h0s-1.4.6-1.4.6c-.5.2-.8.3-1.1.5h-.3c-1.1.3-2,.4-2.6.4h-.3c-.4.2-.6.3-.8.7-.2.3-.4.5-.6.5-.1,0-.4-.2-.6-.5-.4.4-.6.7-.8.9h-1c0,.2-1,.7-2.8,1.4l-2.3,1h-.4c-.7.4-1.3.8-1.8,1-.5.2-.9.5-1.2.7-.3.3-.7.5-1.1.7-.4.2-1,.5-1.8.9h-.8c-.5.5-1.4,1.1-2.4,1.9-1.1.8-1.7,1.4-2,1.7-.2.4-.5.6-.7.6,0,0-.3,0-.6,0h-.1c-.3,0-.7.5-1.2,1.4-.5.8-1,1.5-1.4,1.9-.4.4-.8,1-1,1.7-.2.7-1,1.4-2.3,2,0,0,0,.2-.1.3l.2.8c-.5.4-.8,1.1-1,2.1l-.2.6v1c.3,1,.3,1.6,0,1.7-.3.1-.5.3-.7.6-.2.3-.5.4-.7.5-.6.1-1.2-.2-1.9-1.1-.7-.9-1.1-1.4-1.2-1.6-.5-2-.1-3.5.9-4.8l3.1-3.5c1-1.2,2-1.9,2.8-2.1.2-.2.4-.6.6-1.1.2-.6.8-1.1,1.8-1.6h.9c0,0,.1,0,.2-.4,0-.3.2-.6.5-.8.2-.2.4-.5.6-.8l1.1-1.1c0,0,.1,0,.2-.1h.8c0,0,.2,0,.3-.1.1-.1.3-.2.7-.3.1,0,.2-.2.2-.6,0-.2.3-.3.5-.4" fill="#fff" fill-rule="evenodd"/>
    <path d="M481.2,25.1l-.8,1.9c-.4.2-.9.7-1.7,1.5-.7.8-1.1,1.3-1.2,1.6l-.6.5c-.2.2-.5.5-.8,1-.3.5-.7.8-1.1.9h-1.2c0,0-.5.3-.5.3l-.7-.2c-.5.4-.7.6-.8.6-.6.2-1-.2-1.2-1-.1-.5.4-1.3,1.4-2.3,0-.6.5-1.4,1.3-2.3l.4-.6c.2-.5.4-1,.8-1.3.3-.3.5-.7.5-1.1,0-.4.2-1.1.4-1.9.3-.8.4-1.5.4-2.1.1-.2.3-.6.4-1.2.2-.6.6-.9,1.4-1.1.3,0,.5,0,.7.1.2.1.3.2.4.1l1.9-.6c1.7-.4,2.7,0,3,1.5,0,.2-.2.8-.6,1.9-.4,1.1-.8,2-1,2.8l-.9,1.1ZM473.2,42.8l-.5.4c-.1.1-.4.5-1,1.1-.5.7-1.1,1.2-1.6,1.7-.5.5-1,1.4-1.3,2.9-.4,1.5-.5,2.3-.4,2.5,0,.2.2.3.4.2l1.5-1.1c.6-.5,1-1,1.5-1.6.4-.6,1.1-1.3,2-2.2l.3-.5c0-.2.3-.5.8-.9.5-.5.8-.9,1-1.3l.4-.3c.4-1,.8-1.7,1.3-2,.5-.3.8-.6.7-.8,0-.4-.5-.5-1.1-.4-.3,0-.6.3-1.1.8l-1.2.3c-.1,0-.4.3-.9.8l-.8.4ZM463.4,48.2l.8-1.1c.8-.3,1.1-.8,1-1.5-.1-.8.3-1.6,1.2-2.4l.4-1c.4-.6,1.6-1.6,3.6-2.9.5-.5.8-.8.9-1.2,0,0,0-.1.2-.1h.8c.4,0,1-.3,1.6-.7.6-.4,1.3-.7,1.9-.8l2.1-.6c.1,0,.4,0,.9.1.5,0,1,0,1.6,0,.7-.2,1.5,0,2.2.5.8.5,1.2,1.1,1.3,1.6.2,1,0,2.2-.8,3.5-.8,1.3-1.5,2.1-2.1,2.4-.4.7-.8,1.1-1,1.4-.3.2-.5.5-.8.9-.2.4-.5.6-.7.7-.1,0-.2,0-.3,0,0,0-.2,0-.3,0-.5.1-1,.9-1.3,2.4h-.9c-.5.6-.7,1.1-.8,1.6,0,.5-.4.8-.9.9-.9,1.5-1.6,2.3-2,2.4,0,0-.3,0-.7,0-.2.4-.2.8-.1,1.1,0,.4-.1.7-.6.9l-.5.8h-.5s-.7,1.3-.7,1.3c-.5.1-1,.4-1.4.9,0,.4,0,.9,0,1.6,0,.6,0,1,0,1.1.2,1,1.2,1.2,3,.8l2.3-.9c.6-.1,1.2-.4,1.7-.9.5-.4,1-.8,1.7-.9.2,0,.5-.2.9-.4h.5c.1-.5.4-1,1-1.6.5-.6,1-.9,1.4-.9l.4-.4c0-.4.2-.7.4-.9l.3-.4c.2-.3.4-.5.7-.6l.7-.2h.2c.2-1.1.6-1.7,1.3-2,.7-.3,1.1-.7,1.2-1,.1-.4.4-.6.8-.8.4-.2.8-.5,1-.9.2-.5.5-.9.9-1.3.4-.5.7-.8.8-1,.1-.2.3-.3.4-.4.2,0,.3,0,.4.4,0,.3.2.4.3.4.1,0,.2-.1.1-.2,0-.1-.1-.3-.2-.5v-.4c-.2-.5,0-.9.5-1.2l1.9-2c0-.7,0-1.2.3-1.3.3-.2.5-.4.6-.6.1-.2.3-.3.5-.3.4,0,.7.1.8.6v1.4s.6,1.3.6,1.3c0,.2,0,.5-.3.9-.2.4-.4,1-.3,1.7,0,.8-.1,1.2-.4,1.3h-.3c-.4.8-.8,1.3-1.2,1.5-.3.2-.5.5-.7.8l-1.2,2.3c-.2.4-.5.8-.6,1.1-.2.3-.3.5-.5.5l-.5-.3c0,0,0,0-.2,0-.3,0-.5.3-.5.7,0,.4,0,.8-.3,1.2-.9.7-1.4,1.3-1.7,1.7l-.3.2-.9.2c-.4.1-.7.5-.7,1.2,0,.7-.4,1.2-1.1,1.4-.8.3-1.3.6-1.5,1,0,0-.2.2-.4.3-.2.1-.6.5-1.2,1.1l-3.8,2.5c-.3.2-.5.4-.6.4l-1.3.5c-.2,0-.4,0-.7-.3-.3-.2-.4-.3-.5-.3l-.8.5c-.6.4-1.2.6-1.8.7-.3,0-.7,0-1.2,0-.4-.1-.8-.2-1.1-.3-1,.2-1.8-.4-2.6-1.8l-.6.2c-.1,0-.8-1-2.2-3.2-.3-.2-.6-.3-1.1-.3-.5,0-.7-.3-.9-.8-.3-1.5-.3-2.6.3-3.2.5-.7.8-1.1.8-1.4v-2.7c.2-.1.3-.5.4-1.1l.6-2.4c0-.3.2-.9.5-1.9M413.7,62l.3-.6c.8-.4,1.3-.9,1.4-1.4,0-.2.7-1.3,1.9-3.2,1.2-1.9,1.9-2.9,2-3,.6-2.2.9-3.8.9-4.8.3-.3.5-.6.4-.9l.2-.9.4-.2.2-.3v-.4c-.2-.6,0-2.2.9-4.6.7-3,1-4.6,1-5,0-.3.1-.8.3-1.4.2-.6.4-1.8.6-3.5.2-1.7.8-3.5,1.7-5.5.1,0,.2-.5.3-1.3,0-.7.4-1.5.8-2.3l.4-1.2c.1-.4.3-1,.6-2,.3-.9.6-1.7.9-2.3.3-.6.5-1.2.6-1.8,0-.6.3-1,.5-1.3.3-.3.5-.8.6-1.5.2-.7.6-1.1,1.2-1.3,1.3-.3,2.3,0,3.2.9.8.9,1.3,1.8,1.5,2.6,0,.1,0,.9,0,2.3l.3,4.6c-.6.5-.8.9-.7,1.4.4,1.8.2,3.7-.8,5.9-.1.2-.1.6,0,1.4,0,.7,0,1.4-.4,2-.4.6-.7,1.5-.8,2.6l-3.1,7.7-.3.5c-.2.2-.3.5-.5,1h-.9c-.9.2-1.3.5-1.1,1.1,0,.2.2.5.4.8h0c0,.1-.8,2.2-2.4,6.2,0,.2-.2.9-.2,2.1l-.3,1.7c-.5,1.1-.7,2.2-.8,3.1,0,1-.3,1.8-.6,2.5-.3,1.6-.5,2.5-.4,2.6,0,.2.2.3.4.2.2,0,.6-.7,1.1-1.8.5-1.2,1-2,1.4-2.4.4-.4.7-1,.9-1.7l.4-.5c.1-.1.4-.4.7-.8h.5c.2-.3.3-.5.3-.8,0-.3,0-.5.2-.7.8-.3,1.3-.7,1.4-1.3,0-.6.3-.9.6-1,.3,0,.5-.4.8-1.2.3-.7.8-1.3,1.5-1.9.7-.6,1.2-1,1.5-1.4.3-.4,1-.9,2.1-1.6,1.1-.7,1.8-1.1,2.2-1.2h.3c0,0,.4,0,.4,0l.7-.3c1.2-.3,2.4-.2,3.7.2,1.3.4,2,1.3,2.2,2.7l.3,3.2v2.6c0,.4,0,1.4-.2,2.8-.2,1.5-.2,2.3-.2,2.5v1s.5,1.2.5,1.2v1.1c.2.3.4.5.8.4.1,0,.4-.4.9-1.2.4,0,.7-.3.9-.8.2-.5.6-1.1,1-1.8,0-.1.2-.3.6-.5.4-.2.9-.7,1.5-1.6,0-.3.6-1.1,1.5-2.4.9-1.3,1.9-2.3,2.8-3l.2-.5c.4-.7.9-1.1,1.3-1.2.5-.1.8,0,.9.6,0,.3,0,.7,0,1.1,0,.4,0,.9,0,1.5,0,.6,0,1.5-.4,2.7v.5c-.2.6-.4,1-.7,1.2-.3.2-.6.5-.9,1.1-.3.5-1,1.1-2.1,1.8-.3,1.1-.6,1.7-.9,1.8l-1-.2c-.6.7-.8,1.4-.6,2-.7.9-1.1,1.5-1.2,1.8h-1c-.3.2-.3.6-.1,1.3,0,0-.3.4-.9.9-.6.5-1,1-1.3,1.4-.3.4-1,.7-2.2,1-.1,0-.4,0-.7-.2-.3-.2-.7-.3-1.3-.3-.5,0-1-.3-1.3-.9-.4-.6-.7-1-1-1.3-.3-.3-.5-.6-.5-.8v-1c-.1,0-.6-1-.6-1l.3-.8c-.3-.4-.5-.7-.5-.9l-.2-3.2c-.1-2.3-.2-3.8,0-4.5,0,0,0-.3,0-.6l-.4-1.2v-.7c-.2-.5-.4-.7-.7-.7-.3,0-.6,0-.7,0-.5-.1-.8-.1-.8-.1-.3,0-.4.3-.6.8,0,.5-.3.9-.5,1.3h-1.3c0,.1,0,.2,0,.2,0,.3-.3.9-1,1.8-.8.4-1.4,1-1.8,1.8-.3,0-.7.4-1.2,1.1-.5.7-.9,1-1.1,1.2l-.2.9-.7.4c0,.7-.5,1.3-1.3,1.7l-.3,1c-.7.2-1.1.7-1.2,1.4-.1.7-.2,1.1-.4,1.1,0,0-.2,0-.4,0-.2,0-.3,0-.5,0-.7.2-1,.8-.8,1.9,0,.1-.5,1.1-1.5,2.8-1,1.7-1.6,2.6-1.7,2.7,0,0-.2.4-.3,1.2-.1.7-.4,1.3-.8,1.7-.4.4-.7.8-.9,1-.2.3-.4.4-.5.4-.7.2-1.4-.2-2-1.1-.7-.9-1-1.4-1-1.4v-1.1s-.3-.9-.3-.9c0,0,0-.7.2-2.2.1-1.4.3-2.5.7-3.4.4-.9.5-2.2.4-4-1.3,1.3-2,2.1-2.3,2.1-.7.2-1.1-.2-1.3-1.1-.4-1.6-.2-3.1.5-4.6M383.1,73.1v-.5c-.2-.3,0-1.1.4-2.4.4-1.2,1-2.1,1.8-2.7,0,0,0,0,0-.1l-.3-.8c.1-.2.3-.7.7-1.5.4-.9.8-1.3,1.3-1.3.3-.6.6-1.2,1.1-1.6.5-.5.9-1.1,1.2-1.7l1.6-1.6c1.1-1.2,1.9-1.8,2.5-2l.7-.2c.2-.8.7-1.2,1.4-1.4.6-.2,1.1-.1,1.3,0,0,0,.1,0,.2,0,0,0,.2-.2.5-.5.3-.4.7-.6,1.2-.7.1,0,.9,0,2.4.3.3-.5.6-.8,1-.9.1,0,.4,0,.8.1.4.1.8.2,1.1.3.4,0,.9.6,1.5,1.6.6,1,.9,1.6.9,1.7.1.5-.2,1.3-.9,2.2-.7.9-1.4,1.5-2.2,1.6-.3,0-.7-.1-1.1-.5-1,0-1.9,0-2.7-.2-.9.4-1.5.8-2,1.2h-.1s-.5-.3-.5-.3h-.4s-.1,0-.1,0c0,.1-.1.4-.2.8-.4.5-.8.8-1.2,1-.4.2-.6.5-.8.8-.2.3-.5.7-1,1.1-.5.4-.8.8-1,1.4-.6.5-1,.8-1.3,1h-.3c-.1.7-.6,1.7-1.2,3.1l-.8,2.4c-.2.3-.5.7-.9,1.2-.4.5-.5.8-.4,1.1,0,0,0,.2.2.5v.5c.2.2,0,.5-.2.8-.3.3-.4.6-.3.7l.4,1.1v1.8c.2,1,1.1,1.4,2.6,1l.7-.2,2.1-.9c.7-.2,1.2-.5,1.7-.7.5-.2.7-.3.8-.3,0,0,.3-.3.7-.7h.5c0-.1.4-.3.4-.3,0-.7.8-1.5,2.4-2.4.2-.7.8-1.3,1.7-1.8.9-.5,1.7-1.3,2.4-2.5l.7-.2c.1,0,.4-.3.8-.8.4-.5.9-.9,1.4-1.3.5-.4.8-.6.9-.8,0-.2.3-.4.6-.6.4-1.1,1-1.8,1.7-2.2l.2-.3c.4-.6.7-.9.8-.9h.6c.3-.1.5-.4.5-.8,0-.4.4-1.1,1.2-2.1.8-.9,1.3-1.4,1.6-1.5.6-.1,1,.1,1.2.8.1.5-.1.8-.7,1,.6.8.9,1.2.9,1.3.3,1.1-.1,1.9-1.1,2.5-.1,0-.2.2-.1.4v.9c.1,0,.1,0,.1,0,0,0,0,.1-.1.3l-.7.3v.3c-.8.6-1.5,1.5-2.2,2.6l-.8,1.3h-.2c-.4-.2-.7-.3-.9-.3-.1,0-.2.3-.3.8-.9,1.4-1.5,2.2-2,2.5-.2.1-.5.5-.9,1l-.8.9-.7.2c0,.1-.1.3-.2.5,0,.2-.3.5-.7,1-.4.5-.7.9-.8,1.2-.1.3-.4.6-.8.8h-.9c-.2.6-.7,1-1.5,1.2-.2.2-.4.5-.7,1-.3.5-.5.7-.6.8-.1,0-.5,0-1.2-.4h-.1c-.3.1-.4.4-.3.9.1.5-.1.8-.7,1-.6.2-1.1.5-1.6.9h-.1c-.8.2-1.3.2-1.7,0-.4-.2-.7-.3-1-.4-.9.6-1.4.9-1.5.9-.4,0-.8,0-1.3-.2l-2.4-.6c-.2,0-.5-.5-1-1.2l-.4-.3c-1.1,0-2.1-.9-2.9-2.8l-.7-1.1c0,0-.2-.2-.2-.4,0-.3,0-.9,0-1.6.1-.7.2-1.7.2-2.9,0-1.2.4-2.1,1.1-2.5" fill="#fff" fill-rule="evenodd"/>
    <path d="M447,85.1c-57.2,1-118.9,22.4-157.5,41.4-3,1.4,0,2.6,2.6,1.7,50.4-15.6,104.7-31.9,159.7-34,7.9-1.5,7.2-9.4-4.8-9.1" fill="#fff" fill-rule="evenodd"/>
    <path d="M195.7,14.2l15.8,1.4,25.5-5.8c5.3-.8,9.3.9,11.5,2.6-10.1,0-32.5,7.9-36,8.7v1.8c.1,0-3.9.2-3.9.2l-3.1-1-12-.4-3-2.3,4.3-2.4.9-2.7Z" fill="#fff" fill-rule="evenodd"/>
  </g>
  <path d="M86.1,35.5c26.3,0,47.6,21.3,47.6,47.6s-21.3,47.6-47.6,47.6-47.6-21.3-47.6-47.6,21.3-47.6,47.6-47.6" fill="#fdc900" fill-rule="evenodd"/>
  <path d="M86.1,131.1c-26.5,0-48-21.5-48-48s21.5-48,48-48,48,21.5,48,48-21.5,48-48,48ZM86.1,36c-26,0-47.1,21.1-47.1,47.1s21.1,47.1,47.1,47.1,47.1-21.1,47.1-47.1-21.1-47.1-47.1-47.1Z" fill="#151616"/>
  <path d="M94.4,130.1c-2.9-.5-5.1-1.7-6.4-3.6-1.3-1.9-1.8-4.3-1.3-7.1,1-5.7,5.9-12.2,12.8-16.9,10.5-7.3,22.5-8.4,26.7-2.4,1.5,2.1,1.9,5,1,8.2l-.8-.2c.8-3,.5-5.6-.9-7.5-3.9-5.6-15.4-4.4-25.5,2.6-6.7,4.6-11.5,10.9-12.4,16.4-.4,2.5,0,4.7,1.1,6.4,1.2,1.7,3.2,2.9,5.8,3.3v.9Z" fill="#151616"/>
  <path d="M72.7,128.7c-.3-.4-.7-.8-.9-1.2-1.9-2.9-2.4-6.6-1.5-10.7,1.9-8.6,9.8-18.3,20.6-25.1,16.5-10.5,34.9-11.5,40.9-2.2.7,1.1,1.3,2.4,1.6,3.8l-.9.2c-.3-1.3-.8-2.4-1.5-3.5-5.7-8.9-23.5-7.8-39.7,2.4-10.6,6.7-18.4,16.1-20.2,24.6-.9,3.9-.4,7.4,1.4,10.1.3.4.6.8.9,1.2l-.7.6Z" fill="#151616"/>
  <path d="M54.5,118.4c-2.2-2.9-3-6.6-2.3-11,1.8-10.7,12.1-23.5,27-33.4,19.3-12.9,41.2-17,50.9-9.7l-.5.7c-9.4-7.1-30.8-2.9-49.9,9.8-14.6,9.7-24.8,22.3-26.6,32.8-.7,4.1,0,7.6,2.1,10.4l-.7.5Z" fill="#151616"/>
  <path d="M40.5,93.5c-.1-10.4,10.1-24.8,25.4-35.8,20.3-14.7,43.4-19.1,51.4-10l-.7.6c-7.7-8.8-30.2-4.3-50.2,10.1-15.1,10.9-25.1,25-25,35.1h-.9Z" fill="#151616"/>
  <path d="M41.9,70l-.7-.5c4.5-7.4,11.8-14.9,20.6-21.3,7.7-5.6,16-9.8,24-12.4l.3.8c-7.9,2.5-16.2,6.7-23.8,12.2-8.7,6.3-15.9,13.7-20.3,21Z" fill="#151616"/>
  <path d="M104.5,123.6c-2,0-3.6-.7-4.5-2-1.1-1.4-1.2-3.4-.3-5.6.8-2.1,2.5-4.2,4.6-5.8,2.2-1.6,4.6-2.6,6.8-2.8,2.3-.2,4.2.5,5.3,1.9,1.1,1.4,1.2,3.4.3,5.6-.8,2.1-2.5,4.2-4.6,5.8-2.2,1.6-4.6,2.6-6.8,2.8-.3,0-.5,0-.8,0ZM111.8,108.4c-.2,0-.4,0-.7,0-2.1.2-4.4,1.1-6.4,2.6-2,1.5-3.6,3.4-4.3,5.4-.7,1.9-.6,3.6.2,4.8.9,1.2,2.5,1.7,4.5,1.6,2.1-.2,4.4-1.1,6.4-2.6h0c2-1.5,3.6-3.4,4.3-5.4.7-1.9.7-3.6-.2-4.8-.8-1-2.1-1.6-3.8-1.6Z" fill="#151616"/>
  <path d="M89.8,131l-.2-.8c18.3-4.9,25.6-25,26.3-42.2.8-20.5-7.2-44.4-24.3-50.5l.3-.8c17.4,6.2,25.7,30.5,24.8,51.4-.7,17.5-8.1,38-26.9,43Z" fill="#151616"/>
  <path d="M105.4,118.2c-11.5,0-23.4-5-32.9-11.5-16.4-11.2-31.5-31.2-26.1-48.9l.5.2c-5.3,17.4,9.7,37.3,25.9,48.3,15.2,10.3,36.9,17,52.4,4.8l.3.4c-6,4.8-13,6.7-20.2,6.7Z" fill="#151616"/>
  <path d="M115.9,120.3c-11-3.6-26.3-16.1-38.9-31.7-13.5-16.8-20.4-32.9-18.4-43.2h.5c-2,10.2,4.8,26.1,18.3,42.8,12.5,15.6,27.7,27.9,38.7,31.5l-.2.5Z" fill="#151616"/>
  <path d="M89,122.2c-18.3,0-38.6-11-49.2-28.9l.5-.3c14.2,24,46.1,35.5,66.9,24.2l.3.5c-5.5,3-11.8,4.4-18.4,4.4Z" fill="#151616"/>
  <path d="M107.9,117.7l-.6-.6c19-17.1,24.9-34.8,19-57.3l.8-.2c5.9,22.9,0,40.8-19.3,58.2Z" fill="#151616"/>
  <path d="M74,130.2l-.2-.8c14.2-3.6,47.6-11.9,58.7-36.3l.8.3c-11.3,24.8-44.9,33.2-59.3,36.8Z" fill="#151616"/>
  <path d="M86.5,131.5c-19.9,0-38.5-12.5-45.4-32.3-4.2-12.1-3.4-25.1,2.2-36.7,5.6-11.5,15.4-20.2,27.5-24.4,12.1-4.2,25.1-3.4,36.7,2.2,11.5,5.6,20.2,15.4,24.4,27.5,8.7,25-4.6,52.4-29.6,61.1h0c-5.2,1.8-10.5,2.6-15.7,2.6ZM86.5,36.4c-5.2,0-10.4.9-15.5,2.6-24.6,8.5-37.6,35.4-29.1,60,8.5,24.6,35.4,37.6,60,29.1h0c24.6-8.5,37.6-35.4,29.1-60-4.1-11.9-12.6-21.5-24-27-6.5-3.2-13.5-4.8-20.6-4.8Z" fill="#151616"/>
  <path d="M94.4,130.1c-2.9-.5-5.1-1.7-6.4-3.6-1.3-1.9-1.8-4.3-1.3-7.1,1-5.7,5.9-12.2,12.8-16.9,10.5-7.3,22.5-8.4,26.7-2.4,1.5,2.1,1.9,5,1,8.2l-.8-.2c.8-3,.5-5.6-.9-7.5-3.9-5.6-15.4-4.4-25.5,2.6-6.7,4.6-11.5,10.9-12.4,16.4-.4,2.5,0,4.7,1.1,6.4,1.2,1.7,3.2,2.9,5.8,3.3v.9Z" fill="#151616"/>
  <path d="M74,130l-1.3-1.3c-.4-.4-.7-.8-1-1.3-1.9-2.9-2.4-6.6-1.5-10.7,1.9-8.6,9.8-18.3,20.6-25.1,16.5-10.5,34.9-11.5,40.9-2.2.7,1.1,1.3,2.4,1.6,3.8l-.9.2c-.3-1.3-.8-2.4-1.5-3.5-5.7-8.9-23.5-7.8-39.7,2.4-10.6,6.7-18.4,16.1-20.2,24.6-.9,3.9-.4,7.4,1.4,10.1.3.4.6.8.9,1.2l1.3,1.3-.6.6Z" fill="#151616"/>
  <path d="M55.7,120.3l-1.2-1.9c-2.2-2.9-3-6.6-2.3-11,1.8-10.7,12.1-23.5,27-33.4,19.3-12.9,41.2-17.1,50.9-9.7h0s.5.6.5.6l-.6.6-.5-.5c-9.4-7.1-30.8-2.9-49.8,9.8-14.6,9.7-24.8,22.3-26.6,32.8-.7,4.1,0,7.6,2.1,10.4l1.2,1.9-.7.5Z" fill="#151616"/>
  <path d="M40.5,93.5c-.1-10.4,10.1-24.8,25.4-35.8,9.8-7.1,20.7-12.1,30.6-14.1,10.1-2,17.7-.7,21.7,3.8l-.7.6c-7.7-8.8-31.1-4-51.1,10.4-15.1,10.9-25.1,25-25,35.1h-.9Z" fill="#151616"/>
  <path d="M40.8,71.7l-.7-.5,1.1-1.7c4.5-7.4,11.8-14.9,20.5-21.2,7.7-5.6,16-9.8,24-12.4l2.2-.4.2.9-2.2.4c-7.9,2.5-16.1,6.7-23.7,12.2-8.7,6.3-15.9,13.7-20.3,21l-1.1,1.7Z" fill="#151616"/>
  <path d="M104.5,123.6c-2,0-3.6-.7-4.5-2-1.1-1.4-1.2-3.4-.3-5.6.8-2.1,2.5-4.2,4.6-5.8,2.2-1.6,4.6-2.6,6.8-2.8,2.3-.2,4.2.5,5.3,1.9,1.1,1.4,1.2,3.4.3,5.6-.8,2.1-2.5,4.2-4.6,5.8-2.2,1.6-4.6,2.6-6.8,2.8-.3,0-.5,0-.8,0ZM111.8,108.4c-.2,0-.4,0-.7,0-2.1.2-4.4,1.1-6.4,2.6-2,1.5-3.6,3.4-4.3,5.4-.7,1.9-.6,3.6.2,4.8.9,1.2,2.5,1.7,4.5,1.6,2.1-.2,4.4-1.1,6.4-2.6h0c2-1.5,3.6-3.4,4.3-5.4.7-1.9.7-3.6-.2-4.8-.8-1-2.1-1.6-3.8-1.6Z" fill="#151616"/>
  <path d="M106.5,127.4l-.6-.6,1.1-1.2c6.9-31.4-22.1-77.9-35.7-86.4l-.6-.2.3-.8.7.3c7.6,4.7,18.2,19.2,26,35.1,5.6,11.5,14.3,33.5,10.1,52.3h0c0,.1-1.2,1.5-1.2,1.5Z" fill="#151616"/>
  <path d="M85.3,131.5v-.9c-.1,0,4.3-.5,4.3-.5,18.3-4.9,25.6-25.1,26.2-42.2.8-20.5-7.2-44.4-24.3-50.5l.3-.8c17.4,6.2,25.7,30.5,24.8,51.4-.7,17.5-8.1,38-26.9,43h0s-4.5.5-4.5.5Z" fill="#151616"/>
  <path d="M105.3,118.1c-1.9,0-3.8-.1-5.8-.4-9-1.2-18.5-5.1-27.4-11.3-16.2-11.2-31.1-31.1-25.8-48.7l.3-1.1.5.2-.3,1.1c-5.3,17.3,9.5,37,25.5,48.1,15.1,10.4,36.8,17.3,52.5,5.2l.3.4c-5.5,4.3-12.4,6.5-20,6.5Z" fill="#151616"/>
  <path d="M115.9,120.3c-11-3.6-26.3-16.1-38.9-31.7-13.5-16.8-20.4-32.9-18.4-43.2v-.9c.1,0,.7,0,.7,0v.9c-2.1,10.1,4.7,26,18.1,42.7,12.5,15.6,27.7,27.9,38.7,31.5l-.2.5Z" fill="#151616"/>
  <path d="M89,122.2c-18.3,0-38.6-11-49.2-28.9l.5-.3c14.2,24,46.1,35.5,66.9,24.2l.3.5c-5.5,3-11.8,4.4-18.4,4.4Z" fill="#151616"/>
  <path d="M107.9,117.7l-.6-.6c19-17.1,24.9-34.8,19-57.3l-.6-2.3.8-.2.6,2.3c5.9,22.9,0,40.8-19.3,58.2Z" fill="#151616"/>
  <path d="M74,130.2l-.2-.8c14.2-3.6,47.6-11.9,58.7-36.3l.8.3c-11.3,24.8-44.9,33.2-59.3,36.8Z" fill="#151616"/>
  <path d="M86.5,131.5c-19.9,0-38.5-12.5-45.4-32.3-4.2-12.1-3.4-25.1,2.2-36.7,5.6-11.5,15.4-20.2,27.5-24.4,12.1-4.2,25.1-3.4,36.7,2.2,11.5,5.6,20.2,15.4,24.4,27.5,8.7,25-4.6,52.4-29.6,61.1h0c-5.2,1.8-10.5,2.6-15.7,2.6ZM86.5,36.4c-5.2,0-10.4.9-15.5,2.6-24.6,8.5-37.6,35.4-29.1,60,8.5,24.6,35.4,37.6,60,29.1h0c24.6-8.5,37.6-35.4,29.1-60-4.1-11.9-12.6-21.5-24-27-6.5-3.2-13.5-4.8-20.6-4.8Z" fill="#151616"/>
  <rect x="89.6" y="34.7" width=".9" height="3.6" transform="translate(29.4 112.4) rotate(-73.5)" fill="#151616"/>
  <path d="M45.5,100.3c-1.4,2-2.5,6.4-2.6,8.2-.8,8.1,4.6,12.3,11.9,11.4.9.8,2,1.7,3,2.5-13.3,1.6-16.4-2.7-18-8.4-4.8-17.6,26.6-50.9,77.2-70.9,26.1-10.3,52.3-17,72.1-19.4-57,9.4-124.9,42.2-143.6,76.6" fill="#233558" fill-rule="evenodd"/>
  <path d="M43.7,98.6c-1.4,1.9-2.5,6.4-2.7,8.2-.9,8.2,4.6,12.4,12,11.5.6.5,1.7,1.5,2.9,2.5-13.3,1.6-16.4-2.8-17.9-8.5-4.7-17.7,27.6-49,77.7-70.3,25.5-10.8,51.8-17.7,72.2-18.9-57.1,8.9-125.3,41.2-144.2,75.5" fill="#fff" fill-rule="evenodd"/>
  <path d="M138.6,113l4.8,2.8,9-.3-1.6,2.7h-6c0,0,3,5.3,3,5.3l-1.5,2.6-4.2-8-4.7-2.8,1.3-2.3ZM146.3,90.9l12.8,3-.9,3.9-9.2.3,8.2,4.3-.9,3.9-12.8-3,.6-2.4,10,2.4-9.4-4.9.6-2.5,10.6-.2-10-2.4.6-2.4ZM145.9,73.7l13.1-1.1.8,9.7-2.2.2-.6-7-2.9.2.6,6.6-2.2.2-.6-6.6-3.6.3.6,7.3-2.2.2-.8-9.9ZM151.4,54.6l-8.1,3.2.7,1.8c.3.7.5,1.2.7,1.4.3.4.6.6.9.8.3.2.8.2,1.4.2.6,0,1.4-.3,2.3-.6.9-.4,1.6-.8,2.1-1.1.4-.4.7-.8.9-1.2.2-.4.2-.9.1-1.4,0-.4-.3-1.1-.7-2.1l-.4-1.1ZM152.5,51.3l1.8,4.5c.4,1,.6,1.8.7,2.4,0,.8,0,1.6-.4,2.3-.3.7-.8,1.4-1.5,2-.7.6-1.6,1.1-2.7,1.5-1,.4-1.9.6-2.7.7-1,0-1.9,0-2.7-.4-.6-.3-1.1-.7-1.7-1.3-.4-.5-.8-1.2-1.1-2.1l-1.8-4.6,12.2-4.9ZM138.7,44l2.7-4.4-4.9,1.6,2.2,2.8ZM137.6,51l-1.8-2.3,1.6-2.7-3.2-4.1-3,1-1.7-2.2,13.5-4,1.7,2.2-7.1,12.2ZM126.3,31.6l1.6,2.1c-1.1.9-2.3,1.4-3.4,1.5-1.1,0-2.3-.3-3.4-1.2-1.4-1-2.2-2.3-2.5-3.9-.2-1.6.2-3.3,1.4-5,1.3-1.8,2.7-2.8,4.3-3.2,1.6-.3,3.2,0,4.7,1.1,1.3.9,2.1,2.1,2.4,3.4.2.8,0,1.7-.3,2.7l-2.5-1c.3-.6.3-1.3.1-1.9-.2-.6-.6-1.1-1.1-1.5-.8-.6-1.6-.7-2.5-.5-.9.2-1.8,1-2.7,2.2-1,1.4-1.4,2.5-1.3,3.4,0,.9.5,1.7,1.3,2.2.6.4,1.2.6,1.9.5.7,0,1.4-.4,2.1-1.1M108.5,21.4l-.2-5.2-3.2,4.1,3.4,1.1ZM111.5,27.8l-2.7-.9-.2-3.2-5-1.6-2,2.5-2.7-.9,8.9-10.9,2.7.9.9,14.1ZM68,10.7l1.1-2.7,2.8-.2-2.3,2.8h-1.6ZM67,25.3l-2.7-12.8,9.5-2,.5,2.2-6.9,1.4.6,2.8,6.4-1.3.5,2.2-6.4,1.3.7,3.5,7.2-1.5.5,2.2-9.7,2ZM50.7,33.5l-6.3-11.5,2.3-1.3,2.5,4.5,4.5-2.5-2.5-4.5,2.3-1.3,6.3,11.5-2.3,1.3-2.8-5-4.5,2.5,2.8,5-2.3,1.3ZM39.6,37l2.3-1.4c.8,1.3,1.1,2.4,1,3.6,0,1.1-.6,2.2-1.6,3.3-1.2,1.3-2.6,1.9-4.2,2-1.6,0-3.2-.6-4.7-2-1.6-1.5-2.5-3-2.6-4.7-.1-1.6.4-3.1,1.6-4.5,1.1-1.2,2.3-1.8,3.7-1.9.8,0,1.7.1,2.7.6l-1.3,2.4c-.6-.3-1.2-.5-1.8-.4-.6.1-1.2.4-1.6.9-.7.7-.9,1.5-.8,2.5.1.9.7,1.9,1.9,2.9,1.2,1.1,2.3,1.7,3.2,1.7.9,0,1.7-.3,2.3-1,.5-.5.7-1.1.7-1.8,0-.7-.3-1.4-.8-2.2M27.4,53.2l-5.2-.4,3.6,3.7,1.5-3.2ZM34.2,51l-1.2,2.6-3.2-.2-2.2,4.7,2.2,2.2-1.2,2.5-9.7-10.2,1.2-2.5,14.1.8ZM25.4,79l-13-1.9.4-2.5,9.4-4.1-8.7-1.2.3-2.4,13,1.9-.4,2.6-9.2,4,8.5,1.2-.4,2.4ZM20.6,90.2l-4.6,2.4,5,1.2-.4-3.6ZM25.2,84.7l.3,2.9-2.8,1.5.6,5.2,3.1.7.3,2.8-13.6-3.5-.3-2.8,12.4-6.8ZM21.3,113.7l3.4-1.5-.6-1.3c-.4-1-.8-1.6-1-1.8-.3-.3-.6-.4-.9-.5-.3,0-.7,0-1.1.1-.4.2-.7.5-.9.9-.2.4-.2.8-.1,1.2,0,.3.3.9.7,1.8l.5,1.2ZM32.3,111.8l-12,5.3-1.7-3.9c-.6-1.5-1-2.5-1.1-3-.1-.8,0-1.5.4-2.2.4-.7,1.1-1.3,2-1.7.7-.3,1.4-.5,2-.4.6,0,1.2.2,1.6.5.5.3.8.6,1.1,1,.4.5.8,1.3,1.3,2.4l.7,1.6,4.5-2,1.1,2.4Z" fill="#233558" fill-rule="evenodd"/>
  <path d="M111.1,147.4l-3.4-3.9v5.2s3.4-1.2,3.4-1.2ZM117.4,150.6l-2.7,1-2.1-2.4-4.9,1.8v3.2s-2.6,1-2.6,1l.3-14.1,2.6-1,9.4,10.5ZM97,156.4l-2.1-12.9,2.6-.4,2.1,12.9-2.6.4ZM81.4,146.4v8.7s2,0,2,0c.7,0,1.3,0,1.6-.1.4-.1.8-.3,1.1-.5.3-.3.5-.7.7-1.3.2-.6.3-1.4.3-2.4,0-1,0-1.8-.3-2.3-.2-.5-.4-1-.8-1.3-.3-.3-.7-.5-1.2-.6-.4,0-1.1-.1-2.2-.1h-1.2s0,0,0,0ZM78.7,144.2h4.8c1.1,0,1.9,0,2.5.2.8.2,1.4.6,2,1.2.6.6,1,1.3,1.3,2.1.3.8.4,1.9.4,3.1,0,1.1-.1,2-.4,2.8-.3,1-.8,1.7-1.4,2.3-.5.4-1.1.8-1.9,1.1-.6.2-1.4.3-2.3.3h-5s0-13.1,0-13.1ZM60.9,153.2l3.4-12.7,2.5.7,2.9,9.8,2.2-8.5,2.4.6-3.4,12.7-2.6-.7-2.9-9.6-2.2,8.3-2.4-.6ZM51.6,148.7l5.9-11.7,2.4,1.2-5.9,11.7-2.4-1.2Z" fill="#233558" fill-rule="evenodd"/>
  <polygon points="33.7 123.7 37.3 127.3 42.3 124.9 39.6 129.5 43.2 133.2 37.9 132.4 35.3 137 34.7 131.9 29.4 131.2 34.3 128.8 33.7 123.7" fill="#fdc900" fill-rule="evenodd"/>
  <polygon points="133 129.4 129 132.6 124.4 129.7 126.5 134.6 122.5 137.8 127.8 137.6 130 142.5 131.1 137.5 136.5 137.3 131.8 134.4 133 129.4" fill="#fdc900" fill-rule="evenodd"/>
</svg>