<?xml version="1.0" encoding="UTF-8"?>
<svg id="Layer_1" xmlns="http://www.w3.org/2000/svg" version="1.1" xmlns:xlink="http://www.w3.org/1999/xlink" viewBox="0 0 132 132">
  <!-- Generator: Adobe Illustrator 30.4.0, SVG Export Plug-In . SVG Version: 2.1.4 Build 226)  -->
  <defs>
    <radialGradient id="radial-gradient" cx="20.6" cy="84.4" fx="20.6" fy="84.4" r="77.7" gradientUnits="userSpaceOnUse">
      <stop offset="0" stop-color="#fd5"/>
      <stop offset="0" stop-color="#fd5"/>
      <stop offset=".5" stop-color="#ff543e"/>
      <stop offset="1" stop-color="#c837ab"/>
    </radialGradient>
    <radialGradient id="radial-gradient1" cx="-9" cy="96.5" fx="-9" fy="96.5" r="128.3" xlink:href="#radial-gradient"/>
    <radialGradient id="radial-gradient2" cx="26.4" cy="25" fx="26.4" fy="25" r="44.1" gradientUnits="userSpaceOnUse">
      <stop offset="0" stop-color="#3771c8"/>
      <stop offset=".1" stop-color="#3771c8"/>
      <stop offset="1" stop-color="#60f" stop-opacity="0"/>
    </radialGradient>
    <radialGradient id="radial-gradient3" cx=".6" cy="-1.8" fx=".6" fy="-1.8" r="72.9" xlink:href="#radial-gradient2"/>
  </defs>
  <path d="M105.1,46.6c-.2-4.7-1-7.2-1.7-8.9-.9-2.2-1.9-3.8-3.6-5.5s-3.3-2.7-5.5-3.6c-1.7-.7-4.2-1.4-8.9-1.7-5.1-.2-6.6-.3-19.4-.3h-4.3c-9,0-10.7,0-15.1.3-4.7.2-7.2,1-8.9,1.7-2.2.9-3.8,1.9-5.5,3.6-1.7,1.7-2.7,3.3-3.6,5.5-.7,1.7-1.4,4.2-1.7,8.9-.2,5.1-.3,6.6-.3,19.4s0,14.3.3,19.4c.2,4.7,1,7.2,1.7,8.9.9,2.2,1.9,3.8,3.6,5.5s3.3,2.7,5.5,3.6c1.7.7,4.2,1.4,8.9,1.7,5.1.2,6.6.3,19.4.3s14.3,0,19.4-.3c4.7-.2,7.2-1,8.9-1.7,2.2-.9,3.8-1.9,5.5-3.6s2.7-3.3,3.6-5.5c.7-1.7,1.4-4.2,1.7-8.9.2-5.1.3-6.6.3-19.4s0-14.3-.3-19.4ZM66,90.7c-13.6,0-24.7-11-24.7-24.7s11-24.7,24.7-24.7,24.7,11,24.7,24.7-11,24.6-24.7,24.7ZM91.6,46.1c-3.2,0-5.8-2.6-5.8-5.8s2.6-5.8,5.8-5.8,5.8,2.6,5.8,5.8-2.6,5.8-5.8,5.8ZM66,50c-8.8,0-16,7.2-16,16s7.2,16,16,16,16-7.2,16-16-7.2-16-16-16Z" fill="url(#radial-gradient)"/>
  <path d="M130.9,29.2c-.4-5.2-1.3-8.7-3.1-12.4-1.5-3-3.2-5.3-5.6-7.6-4.3-4.1-9.6-6.6-15.8-7.5-3-.4-3.7-.6-19.2-.6h-21.2c-27.1,0-35.1,0-36.6.2-5.6.5-9,1.3-12.8,3.2-2.9,1.4-5.2,3.1-7.5,5.5-4.1,4.3-6.6,9.5-7.5,15.8-.4,3-.6,3.7-.6,19.2,0,5.2,0,12,0,21.1,0,27.1,0,35.1.2,36.6.5,5.4,1.3,8.8,3.1,12.6,3.5,7.1,10,12.5,17.8,14.5,2.7.7,5.6,1.1,9.5,1.2,1.6,0,18,.1,34.4.1s32.8,0,34.4,0c4.4-.2,7-.5,9.8-1.3,7.8-2,14.2-7.3,17.8-14.5,1.8-3.6,2.7-7.2,3.1-12.3,0-1.1.1-19,.1-36.8s0-35.7-.1-36.8ZM113.7,85.8c-.2,5.1-1.1,8.6-2.2,11.7-1.2,3.2-2.9,5.8-5.5,8.5s-5.3,4.3-8.5,5.5c-3,1.2-6.5,2-11.7,2.2-5.1.2-6.8.3-19.8.3s-14.7,0-19.8-.3c-5.1-.2-8.6-1-11.7-2.2-3.2-1.2-5.8-2.9-8.5-5.5-2.7-2.7-4.3-5.3-5.5-8.5-1.2-3-2-6.5-2.2-11.7-.2-5.1-.3-6.8-.3-19.8s0-14.7.3-19.8c.2-5.1,1-8.6,2.2-11.7,1.2-3.2,2.9-5.8,5.5-8.5,2.7-2.7,5.3-4.3,8.5-5.5,3-1.2,6.5-2,11.7-2.2,5.1-.2,6.8-.3,19.8-.3s14.7,0,19.8.3c5.1.2,8.6,1,11.7,2.2,3.2,1.2,5.8,2.9,8.5,5.5s4.3,5.4,5.5,8.5c1.2,3,2,6.5,2.2,11.7.2,5.1.3,6.8.3,19.8s0,14.7-.3,19.8Z" fill="url(#radial-gradient1)"/>
  <path d="M105.1,46.6c-.2-4.7-1-7.2-1.7-8.9-.9-2.2-1.9-3.8-3.6-5.5s-3.3-2.7-5.5-3.6c-1.7-.7-4.2-1.4-8.9-1.7-5.1-.2-6.6-.3-19.4-.3h-4.3c-9,0-10.7,0-15.1.3-4.7.2-7.2,1-8.9,1.7-2.2.9-3.8,1.9-5.5,3.6-1.7,1.7-2.7,3.3-3.6,5.5-.7,1.7-1.4,4.2-1.7,8.9-.2,5.1-.3,6.6-.3,19.4s0,14.3.3,19.4c.2,4.7,1,7.2,1.7,8.9.9,2.2,1.9,3.8,3.6,5.5s3.3,2.7,5.5,3.6c1.7.7,4.2,1.4,8.9,1.7,5.1.2,6.6.3,19.4.3s14.3,0,19.4-.3c4.7-.2,7.2-1,8.9-1.7,2.2-.9,3.8-1.9,5.5-3.6s2.7-3.3,3.6-5.5c.7-1.7,1.4-4.2,1.7-8.9.2-5.1.3-6.6.3-19.4s0-14.3-.3-19.4ZM66,90.7c-13.6,0-24.7-11-24.7-24.7s11-24.7,24.7-24.7,24.7,11,24.7,24.7-11,24.6-24.7,24.7ZM91.6,46.1c-3.2,0-5.8-2.6-5.8-5.8s2.6-5.8,5.8-5.8,5.8,2.6,5.8,5.8-2.6,5.8-5.8,5.8ZM66,50c-8.8,0-16,7.2-16,16s7.2,16,16,16,16-7.2,16-16-7.2-16-16-16Z" fill="url(#radial-gradient2)"/>
  <path d="M130.9,29.2c-.4-5.2-1.3-8.7-3.1-12.4-1.5-3-3.2-5.3-5.6-7.6-4.3-4.1-9.6-6.6-15.8-7.5-3-.4-3.7-.6-19.2-.6h-21.2c-27.1,0-35.1,0-36.6.2-5.6.5-9,1.3-12.8,3.2-2.9,1.4-5.2,3.1-7.5,5.5-4.1,4.3-6.6,9.5-7.5,15.8-.4,3-.6,3.7-.6,19.2,0,5.2,0,12,0,21.1,0,27.1,0,35.1.2,36.6.5,5.4,1.3,8.8,3.1,12.6,3.5,7.1,10,12.5,17.8,14.5,2.7.7,5.6,1.1,9.5,1.2,1.6,0,18,.1,34.4.1s32.8,0,34.4,0c4.4-.2,7-.5,9.8-1.3,7.8-2,14.2-7.3,17.8-14.5,1.8-3.6,2.7-7.2,3.1-12.3,0-1.1.1-19,.1-36.8s0-35.7-.1-36.8ZM113.7,85.8c-.2,5.1-1.1,8.6-2.2,11.7-1.2,3.2-2.9,5.8-5.5,8.5s-5.3,4.3-8.5,5.5c-3,1.2-6.5,2-11.7,2.2-5.1.2-6.8.3-19.8.3s-14.7,0-19.8-.3c-5.1-.2-8.6-1-11.7-2.2-3.2-1.2-5.8-2.9-8.5-5.5-2.7-2.7-4.3-5.3-5.5-8.5-1.2-3-2-6.5-2.2-11.7-.2-5.1-.3-6.8-.3-19.8s0-14.7.3-19.8c.2-5.1,1-8.6,2.2-11.7,1.2-3.2,2.9-5.8,5.5-8.5,2.7-2.7,5.3-4.3,8.5-5.5,3-1.2,6.5-2,11.7-2.2,5.1-.2,6.8-.3,19.8-.3s14.7,0,19.8.3c5.1.2,8.6,1,11.7,2.2,3.2,1.2,5.8,2.9,8.5,5.5s4.3,5.4,5.5,8.5c1.2,3,2,6.5,2.2,11.7.2,5.1.3,6.8.3,19.8s0,14.7-.3,19.8Z" fill="url(#radial-gradient3)"/>
</svg>