<svg xmlns="http://www.w3.org/2000/svg" width="119.359" height="64" viewBox="0 0 119.359 64">
<g transform="translate(0.07)">
 <path d="M240.448,190.6c.747,1.342,2.141,1.75,3.734.788a31.921,31.921,0,0,0,2.807-1.92c-.368-.222-.759-.473-1.167-.753h0c-.262.187-.583.4-.9.618-2.451,1.61-3.95.992-4.773.047a2.509,2.509,0,0,1-.426-2.48,2.615,2.615,0,0,1,1.529-1.348v.309a2.334,2.334,0,0,0-1.1.864,2.118,2.118,0,0,0,.478,2.725,2.457,2.457,0,0,0,2.5.239,10.036,10.036,0,0,0,2.176-1.336h0l-.414-.292-.2-.152h0a2.764,2.764,0,0,1-2.754.805,1.1,1.1,0,0,1-.5-1.43c.513-1.05,1.867-.817,3.122.14l.07.053h0a2.579,2.579,0,0,0,.409-1.972,2.784,2.784,0,0,0-2.976-2.246,3.286,3.286,0,0,0-3.04,2.019c-.5,1.435.1,1.844.642.467a2.638,2.638,0,0,0,.052-1.552l.21-.181a2.841,2.841,0,0,1-.368,2.416c-.426.543-1.021.49-.893-.583a2.982,2.982,0,0,1,1.074-1.984.291.291,0,0,1-.07.076h0a3.537,3.537,0,0,0-1.342-1.873,3.566,3.566,0,0,0-1.342,1.873h0a.449.449,0,0,1-.07-.076A2.981,2.981,0,0,1,238,185.842c.128,1.091-.461,1.167-.893.583a2.842,2.842,0,0,1-.368-2.416l.21.181h0a2.637,2.637,0,0,0,.053,1.552c.543,1.377,1.109.9.642-.467a3.389,3.389,0,0,0-3.04-2.019,2.8,2.8,0,0,0-2.976,2.246,2.579,2.579,0,0,0,.408,1.972h0l.07-.053c1.255-.957,2.608-1.167,3.122-.14a1.1,1.1,0,0,1-.5,1.43,2.829,2.829,0,0,1-2.754-.805h0l-.2.152-.42.292h0a10.032,10.032,0,0,0,2.177,1.336,2.451,2.451,0,0,0,2.5-.239,2.118,2.118,0,0,0,.478-2.725,2.333,2.333,0,0,0-1.1-.864v-.309a2.614,2.614,0,0,1,1.529,1.348,2.509,2.509,0,0,1-.426,2.48c-.823.945-2.334,1.564-4.773-.047-.338-.222-.636-.432-.9-.618h0c-.414.28-.8.531-1.167.753a31.906,31.906,0,0,0,2.807,1.92c1.593.945,2.987.554,3.734-.788h.274c-.718,1.634-2.491,2.06-4.446,1.126a17.244,17.244,0,0,1-2.97-1.926c-1.278.653-2.334.794-3.256-.029a2.275,2.275,0,0,1-.671-1.885H180.64v-.438H225.2a2.077,2.077,0,0,1,2.7-1.33c1.307.286,2.083,1.132,3.18,2.03h0l.665-.478h0a2.261,2.261,0,0,1-.368-.753A3.025,3.025,0,0,1,234.589,183a3.856,3.856,0,0,1,2.217.77h-.041a4.173,4.173,0,0,1,.759-1.447,2.37,2.37,0,0,1,.793-.583,2.334,2.334,0,0,1,.794.583,4.171,4.171,0,0,1,.759,1.447h-.035a3.828,3.828,0,0,1,2.211-.77,3.031,3.031,0,0,1,3.227,3.915,2.389,2.389,0,0,1-.373.753h0l.671.478h0c1.1-.9,1.879-1.75,3.18-2.03a2.069,2.069,0,0,1,2.7,1.33h44.526v.438H251.516a2.275,2.275,0,0,1-.648,1.885c-.916.823-1.978.683-3.256.029a17.24,17.24,0,0,1-2.97,1.926c-1.955.934-3.723.508-4.446-1.126Zm-11.168-1.389c-1.324-.98-2.334-1.7-3.658-1.75a1.482,1.482,0,0,1,1.692-.91c1.325.152,1.505.694,3.2,1.966h0c-.385.245-.77.461-1.237.706ZM225.5,187.89a6.26,6.26,0,0,1,3.157,1.634c-1.114.548-1.92.624-2.661-.088A1.873,1.873,0,0,1,225.5,187.89Zm6.693-.163a2.772,2.772,0,0,0,1.926.817.794.794,0,0,0,.2-1.575,2.768,2.768,0,0,0-2.13.764Zm15.171,1.505c1.319-.98,2.334-1.7,3.658-1.75a1.494,1.494,0,0,0-1.7-.91c-1.324.152-1.505.694-3.2,1.966h0c.385.245.77.461,1.243.706Zm3.769-1.319a6.305,6.305,0,0,0-3.157,1.634c1.115.549,1.92.624,2.661-.087A1.849,1.849,0,0,0,251.137,187.913Zm-6.687-.187a2.772,2.772,0,0,1-1.926.817.794.794,0,0,1-.2-1.575,2.768,2.768,0,0,1,2.13.764Z" transform="translate(-178.545 -128.211)" fill="#d2ab67" fill-rule="evenodd"/>
 <path d="M180.139,133.016v-4.3a1.751,1.751,0,0,1,.187-.793.764.764,0,0,1,.554-.338,2.582,2.582,0,0,1,.286-.047,1.342,1.342,0,0,1,.21,0,.193.193,0,0,0,.111-.035.093.093,0,0,0,.047-.088.134.134,0,0,0-.076-.128.649.649,0,0,0-.239,0h-3.968a.66.66,0,0,0-.245,0,.146.146,0,0,0-.076.128.1.1,0,0,0,.052.088.163.163,0,0,0,.105.035,2.54,2.54,0,0,1,.28,0,1.383,1.383,0,0,1,.338.064.706.706,0,0,1,.49.344,1.692,1.692,0,0,1,.187.77v11.057a8.513,8.513,0,0,1-.07,1.068,4.027,4.027,0,0,1-.1.525.986.986,0,0,1-.169.379.508.508,0,0,1-.309.193l-.3.058a2.931,2.931,0,0,1-.3,0,.175.175,0,0,0-.128.035.117.117,0,0,0-.035.082.128.128,0,0,0,.076.123.543.543,0,0,0,.245.035H181.7a.5.5,0,0,0,.239-.041.123.123,0,0,0,.076-.117.094.094,0,0,0-.035-.082.169.169,0,0,0-.123-.035h-.245l-.333-.029-.315-.041a.823.823,0,0,1-.455-.193.859.859,0,0,1-.228-.379,2.336,2.336,0,0,1-.093-.525q-.052-.42-.07-1.068V133Zm10.73-4.919,2.509.041a7.587,7.587,0,0,1,1.167.105,2.482,2.482,0,0,1,.735.233.951.951,0,0,1,.391.338.9.9,0,0,1,.14.42v.216a.746.746,0,0,0,.047.274.105.105,0,0,0,.111.064.117.117,0,0,0,.1-.058.373.373,0,0,0,.041-.2v-2.194a.524.524,0,0,0,0-.169.082.082,0,0,0-.088-.07.943.943,0,0,0-.2.035c-.088,0-.21.041-.362.064a5.537,5.537,0,0,1-.583.07h-8.595l-.584-.035-.613-.053a1.832,1.832,0,0,1-.432-.082,1.7,1.7,0,0,1-.274-.105.461.461,0,0,0-.169-.052.228.228,0,0,0-.076.07.648.648,0,0,0-.07.158,1.166,1.166,0,0,0-.052.152c0,.035-.029.123-.058.257s-.07.3-.117.484-.082.368-.123.583-.07.35-.1.49a2.607,2.607,0,0,0-.041.28.332.332,0,0,0,0,.128.087.087,0,0,0,.076.047.163.163,0,0,0,.1-.035.46.46,0,0,0,.093-.163l.111-.233q.07-.134.228-.385a1.166,1.166,0,0,1,.4-.373,1.786,1.786,0,0,1,.63-.193,7.418,7.418,0,0,1,1-.07l2.917-.041v11.676a8.511,8.511,0,0,1-.07,1.068,4.02,4.02,0,0,1-.1.525.986.986,0,0,1-.169.379.508.508,0,0,1-.309.193l-.3.058a2.8,2.8,0,0,1-.3,0,.163.163,0,0,0-.122.035.1.1,0,0,0-.041.082.128.128,0,0,0,.076.122.583.583,0,0,0,.245.035H192.5a.547.547,0,0,0,.245-.041.134.134,0,0,0,.076-.117.117.117,0,0,0-.035-.082.187.187,0,0,0-.128-.035h-.245l-.333-.029-.315-.041a.822.822,0,0,1-.455-.192.859.859,0,0,1-.228-.379,2.722,2.722,0,0,1-.093-.525q-.052-.42-.07-1.068c0-.426,0-.916-.029-1.465V128.085ZM206.2,142.573h.986a7.74,7.74,0,0,0,.986-.088,8.977,8.977,0,0,0,.893-.14,5.146,5.146,0,0,0,.718-.2,2.152,2.152,0,0,0,.268-.14.542.542,0,0,0,.146-.158,1.956,1.956,0,0,0,.1-.28c.041-.14.082-.309.123-.513s.082-.414.117-.636.07-.438.1-.636.058-.373.07-.513.029-.222.029-.251a.583.583,0,0,0-.035-.21.105.105,0,0,0-.105-.088.134.134,0,0,0-.128.064.653.653,0,0,0-.07.233,2.4,2.4,0,0,1-.082.35c-.041.146-.093.292-.152.455a3.509,3.509,0,0,1-.222.473,1.808,1.808,0,0,1-.28.391,2.747,2.747,0,0,1-.922.624,4.4,4.4,0,0,1-1.167.3,10.29,10.29,0,0,1-1.383.076,7.147,7.147,0,0,1-2.381-.391,6.829,6.829,0,0,1-1.99-1.079,6.951,6.951,0,0,1-1.511-1.61,7.153,7.153,0,0,1-.969-1.99,7.616,7.616,0,0,1-.338-2.217,12.142,12.142,0,0,1,.146-1.937,6.217,6.217,0,0,1,.537-1.75,5.253,5.253,0,0,1,1.109-1.517,4.085,4.085,0,0,1,.91-.677,5.567,5.567,0,0,1,1.459-.583,9.5,9.5,0,0,1,2.211-.222,8.281,8.281,0,0,1,1.657.158,7.061,7.061,0,0,1,1.371.414,3.75,3.75,0,0,1,.951.584,2.074,2.074,0,0,1,.449.548,2.971,2.971,0,0,1,.391,1.482,1.427,1.427,0,0,0,0,.315.134.134,0,0,0,.134.105.14.14,0,0,0,.128-.1,1.386,1.386,0,0,0,.052-.321v-2.06c0-.193.029-.432.041-.583s.035-.257.041-.338a1.5,1.5,0,0,0,0-.2.169.169,0,0,0-.047-.146.321.321,0,0,0-.21-.076,6.239,6.239,0,0,1-.969-.111c-.327-.053-.688-.117-1.062-.187s-.665-.105-1.009-.146-.671-.058-.992-.07-.619,0-.887,0a11.609,11.609,0,0,0-2.672.286,7.683,7.683,0,0,0-1.978.759,6.68,6.68,0,0,0-1.424,1.085,7.166,7.166,0,0,0-1.091,1.412,7.93,7.93,0,0,0-.688,1.47,8.8,8.8,0,0,0-.35,1.389,7.427,7.427,0,0,0-.1,1.167,10.914,10.914,0,0,0,.105,1.476,7.806,7.806,0,0,0,.379,1.529,7,7,0,0,0,.735,1.5,6.878,6.878,0,0,0,1.167,1.389,7.964,7.964,0,0,0,1.75,1.167,8.849,8.849,0,0,0,2.147.723,13.918,13.918,0,0,0,2.684.239Zm26.619-9.558v-4.3a1.749,1.749,0,0,1,.181-.794.764.764,0,0,1,.583-.338,2.587,2.587,0,0,1,.286-.047,1.337,1.337,0,0,1,.21,0,.17.17,0,0,0,.111-.035.093.093,0,0,0,.052-.088.14.14,0,0,0-.082-.128.631.631,0,0,0-.239,0h-4.225a.631.631,0,0,0-.239,0,.14.14,0,0,0-.082.128.117.117,0,0,0,.052.088.193.193,0,0,0,.111.035h.216a1.744,1.744,0,0,1,.251,0,.866.866,0,0,1,.21.035,1.167,1.167,0,0,1,.5.2.746.746,0,0,1,.263.368,2.047,2.047,0,0,1,.088.584v4.72c0,.047,0,.082-.035.093a.134.134,0,0,1-.082,0h-8.367a.134.134,0,0,1-.082,0,.184.184,0,0,1-.035-.093v-4.72a1.822,1.822,0,0,1,.187-.794.765.765,0,0,1,.584-.338,2.582,2.582,0,0,1,.286-.047,1.344,1.344,0,0,1,.21,0,.181.181,0,0,0,.111-.035.093.093,0,0,0,.047-.087.134.134,0,0,0-.076-.128.647.647,0,0,0-.239,0h-4.2a.658.658,0,0,0-.245,0,.146.146,0,0,0-.076.128.117.117,0,0,0,.052.087.175.175,0,0,0,.105.035h.222a1.752,1.752,0,0,1,.251,0,.867.867,0,0,1,.2.035,1.2,1.2,0,0,1,.508.2.707.707,0,0,1,.257.368,2.031,2.031,0,0,1,.093.583V139.8a8.518,8.518,0,0,1-.07,1.068,4.012,4.012,0,0,1-.1.525.985.985,0,0,1-.169.379.507.507,0,0,1-.309.193l-.3.058a2.749,2.749,0,0,1-.3,0,.164.164,0,0,0-.123.035.1.1,0,0,0-.041.082.128.128,0,0,0,.076.123.583.583,0,0,0,.245.035h4.405a.548.548,0,0,0,.245-.041.134.134,0,0,0,.076-.117.117.117,0,0,0-.035-.082.187.187,0,0,0-.128-.035h-.245l-.333-.029-.315-.041a.823.823,0,0,1-.455-.193.859.859,0,0,1-.228-.379,2.727,2.727,0,0,1-.093-.525q-.053-.42-.07-1.068c0-.426,0-.916-.029-1.465v-3.874c0-.053,0-.088.035-.1a.1.1,0,0,1,.082,0h8.443a.14.14,0,0,1,.082,0,.123.123,0,0,1,.035.093v5.339a8.5,8.5,0,0,1-.07,1.068,4.1,4.1,0,0,1-.093.525,1.085,1.085,0,0,1-.175.379.49.49,0,0,1-.309.192l-.3.058a2.751,2.751,0,0,1-.3,0,.169.169,0,0,0-.122.035.093.093,0,0,0-.035.082.122.122,0,0,0,.076.123.514.514,0,0,0,.239.035h4.4a.531.531,0,0,0,.245-.041.134.134,0,0,0,.076-.117.116.116,0,0,0-.035-.082.169.169,0,0,0-.123-.035h-.251l-.333-.029-.315-.041a.822.822,0,0,1-.455-.193.856.856,0,0,1-.228-.379,2.728,2.728,0,0,1-.093-.525q-.052-.42-.07-1.068c0-.426,0-.916-.029-1.465V133.01Zm3.326,1.75a8.963,8.963,0,0,0,.193,1.826,8.538,8.538,0,0,0,.583,1.8,7.588,7.588,0,0,0,1.027,1.634,6.792,6.792,0,0,0,1.482,1.336,7.2,7.2,0,0,0,1.961.9,8.752,8.752,0,0,0,2.468.333,8.321,8.321,0,0,0,2.667-.42,7.409,7.409,0,0,0,2.2-1.167,7.719,7.719,0,0,0,1.663-1.75,8.264,8.264,0,0,0,1.05-2.235,9.2,9.2,0,0,0,.362-2.556,8.28,8.28,0,0,0-.385-2.562,6.79,6.79,0,0,0-1.079-2.071,6.686,6.686,0,0,0-1.669-1.546,7.643,7.643,0,0,0-2.153-.957,9.393,9.393,0,0,0-2.538-.333,8.643,8.643,0,0,0-2.486.35,7.224,7.224,0,0,0-1.99.951,7.412,7.412,0,0,0-1.506,1.377,8.075,8.075,0,0,0-1.05,1.657,8.378,8.378,0,0,0-.613,1.75,7.544,7.544,0,0,0-.2,1.692Zm1.891-.583a8.489,8.489,0,0,1,.443-2.865,5.6,5.6,0,0,1,1.214-2.048,5.048,5.048,0,0,1,1.844-1.231,6.324,6.324,0,0,1,2.334-.408,5.752,5.752,0,0,1,1.838.3,5.64,5.64,0,0,1,1.651.9,6.231,6.231,0,0,1,1.342,1.488,7.4,7.4,0,0,1,.9,2.054,9.92,9.92,0,0,1,.321,2.6,10.077,10.077,0,0,1-.28,2.521,6.56,6.56,0,0,1-.741,1.826,5.324,5.324,0,0,1-1.05,1.243,4.841,4.841,0,0,1-1.2.753,5.32,5.32,0,0,1-1.167.385,5.245,5.245,0,0,1-1.027.1,5.922,5.922,0,0,1-2.509-.537,6,6,0,0,1-2.025-1.535,7.235,7.235,0,0,1-1.348-2.4,9.794,9.794,0,0,1-.49-3.145Zm21.5-6.1,2.509.041a7.586,7.586,0,0,1,1.167.105,2.519,2.519,0,0,1,.741.233,1.033,1.033,0,0,1,.391.338,1.056,1.056,0,0,1,.14.42v.216a.9.9,0,0,0,.047.274.105.105,0,0,0,.111.064.111.111,0,0,0,.1-.058.374.374,0,0,0,.041-.2v-2.194a.523.523,0,0,0,0-.169.082.082,0,0,0-.087-.07.842.842,0,0,0-.193.035,3.216,3.216,0,0,0-.362.064q-.29.05-.583.07h-8.606l-.584-.035-.583-.052a1.834,1.834,0,0,1-.432-.082,1.965,1.965,0,0,1-.274-.105.461.461,0,0,0-.169-.053.14.14,0,0,0-.076.07q-.035.07-.07.158a1.178,1.178,0,0,0-.053.152c0,.035-.029.123-.058.257s-.07.3-.111.484-.088.368-.123.583l-.1.49a2.586,2.586,0,0,0-.041.28.244.244,0,0,0,.029.128.07.07,0,0,0,.07.047.163.163,0,0,0,.1-.035.46.46,0,0,0,.093-.163l.111-.233q.07-.134.228-.385a1.213,1.213,0,0,1,.4-.373,1.827,1.827,0,0,1,.63-.193,7.411,7.411,0,0,1,1-.07l2.947-.041V138.3c0,.548,0,1.039-.029,1.465s-.035.788-.07,1.068a4.085,4.085,0,0,1-.093.525,1.087,1.087,0,0,1-.175.379.49.49,0,0,1-.309.193l-.3.058a2.749,2.749,0,0,1-.3,0,.169.169,0,0,0-.122.035.093.093,0,0,0-.035.082.123.123,0,0,0,.076.123.514.514,0,0,0,.239.035h4.4a.531.531,0,0,0,.245-.041.134.134,0,0,0,.076-.117.117.117,0,0,0-.035-.082.169.169,0,0,0-.123-.035h-.251l-.333-.029-.315-.041a.839.839,0,0,1-.455-.193.856.856,0,0,1-.228-.379,3.242,3.242,0,0,1-.093-.525q-.053-.42-.07-1.068c0-.426,0-.916-.029-1.465V128.074Z" transform="translate(-177 -105.382)" fill="#2f2f2f"/>
 <path d="M331.78,136.518v1.75c0,.584,0,1.045-.029,1.471s-.035.788-.07,1.068a3.756,3.756,0,0,1-.093.519,1.069,1.069,0,0,1-.175.385.491.491,0,0,1-.309.193l-.3.058a2.787,2.787,0,0,1-.3,0,.17.17,0,0,0-.123.035.094.094,0,0,0-.035.082.122.122,0,0,0,.076.123.512.512,0,0,0,.239.035H333.2l.957.047,1.412.041h1.949a5.205,5.205,0,0,0,.583,0,.5.5,0,0,0,.315-.134.832.832,0,0,0,.169-.362,3.043,3.043,0,0,1,.064-.344c.023-.14.047-.3.064-.473s.047-.327.064-.49.035-.292.047-.4a1.316,1.316,0,0,0,0-.222,1.141,1.141,0,0,0,0-.2.1.1,0,0,0-.105-.093.123.123,0,0,0-.117.064.832.832,0,0,0-.064.233,2.635,2.635,0,0,1-.31.939,1.167,1.167,0,0,1-.583.49,2.255,2.255,0,0,1-.583.158q-.346.046-.694.058h-.583a7.368,7.368,0,0,1-1.167-.064,1.511,1.511,0,0,1-.688-.239.928.928,0,0,1-.333-.49,3.46,3.46,0,0,1-.111-.84v-5.164a.163.163,0,0,1,.035-.1.128.128,0,0,1,.1-.035h1.71l.665.029a1.785,1.785,0,0,1,.473.035,1.569,1.569,0,0,1,.583.152.816.816,0,0,1,.309.257.884.884,0,0,1,.128.286,1.427,1.427,0,0,1,.07.35,2.873,2.873,0,0,1,0,.309.2.2,0,0,0,.029.122.122.122,0,0,0,.111.053.111.111,0,0,0,.1-.058.386.386,0,0,0,0-.146.89.89,0,0,0,0-.169V134.9a1.332,1.332,0,0,1,.029-.35c.035-.327.07-.583.105-.759a2.423,2.423,0,0,0,.052-.356.218.218,0,0,0,0-.122.087.087,0,0,0-.076-.035.193.193,0,0,0-.123.07l-.175.187a.648.648,0,0,1-.356.2,3.1,3.1,0,0,1-.583.082h-3.157a.1.1,0,0,1-.093-.047.342.342,0,0,1,0-.152v-5.5a.308.308,0,0,1,0-.152.093.093,0,0,1,.087-.047h2.731a4.05,4.05,0,0,1,.811.158,1.042,1.042,0,0,1,.414.228.918.918,0,0,1,.187.292,1.3,1.3,0,0,1,.076.257,2.452,2.452,0,0,1,.035.263v.2a.344.344,0,0,0,.035.187.123.123,0,0,0,.123.07.105.105,0,0,0,.093-.07,1.114,1.114,0,0,0,.047-.146,1.129,1.129,0,0,1,.029-.28,1.8,1.8,0,0,0,0-.4v-.636a4.653,4.653,0,0,1,.1-.624,1.588,1.588,0,0,0,.058-.315.359.359,0,0,0,0-.123c0-.035,0-.058-.064-.058a.286.286,0,0,0-.134.047l-.14.058-.344.052c-.152,0-.321.035-.513.047H332.5l-.817-.041h-1.435a.629.629,0,0,0-.239,0,.14.14,0,0,0-.082.128.117.117,0,0,0,.052.088.193.193,0,0,0,.111.035h.216a1.761,1.761,0,0,1,.251,0,.923.923,0,0,1,.21.035,1.167,1.167,0,0,1,.5.2.748.748,0,0,1,.263.368,2.051,2.051,0,0,1,.087.583v7.807Zm13.222-3.5v-4.3a2.234,2.234,0,0,1,.087-.583.753.753,0,0,1,.239-.368.909.909,0,0,1,.449-.181,2.674,2.674,0,0,1,.362-.047,2.916,2.916,0,0,1,.292,0,.193.193,0,0,0,.111-.035.117.117,0,0,0,.052-.088.146.146,0,0,0-.076-.128.66.66,0,0,0-.245,0h-4.423a.629.629,0,0,0-.239,0,.14.14,0,0,0-.082.128.117.117,0,0,0,.052.088.193.193,0,0,0,.111.035h.216a1.887,1.887,0,0,1,.257,0,.921.921,0,0,1,.2.035,1.169,1.169,0,0,1,.5.2.748.748,0,0,1,.263.368,2.052,2.052,0,0,1,.088.583v9.587c0,.583,0,1.044-.029,1.47s-.035.788-.07,1.068a3.8,3.8,0,0,1-.093.519,1.068,1.068,0,0,1-.175.385.491.491,0,0,1-.309.193l-.3.058a2.762,2.762,0,0,1-.3,0,.169.169,0,0,0-.122.035.092.092,0,0,0-.035.082.122.122,0,0,0,.076.122.513.513,0,0,0,.239.035h.531l.583-.029h1.733l1.115.047,1.424.041h2.5a1.049,1.049,0,0,0,.35-.076.413.413,0,0,0,.181-.163,1.35,1.35,0,0,0,.105-.28,4.185,4.185,0,0,0,.111-.519c.041-.2.07-.4.1-.583s.047-.385.064-.543a1.871,1.871,0,0,0,0-.321.748.748,0,0,0,0-.233.088.088,0,0,0-.093-.064.134.134,0,0,0-.128.07.655.655,0,0,0-.052.187,2.335,2.335,0,0,1-.105.408,2.652,2.652,0,0,1-.175.42,2.1,2.1,0,0,1-.239.368,1.413,1.413,0,0,1-.584.414,3.327,3.327,0,0,1-.817.158h-.992a11.907,11.907,0,0,1-1.237-.047,2.718,2.718,0,0,1-.735-.152,1.069,1.069,0,0,1-.414-.257,1.3,1.3,0,0,1-.274-.688,11.866,11.866,0,0,1-.128-1.47q-.035-.945-.035-2.4v-3.548Zm10.31,9.558a6.258,6.258,0,0,0,1.587-.193,4.623,4.623,0,0,0,1.424-.642,3.732,3.732,0,0,0,.84-.817,3.813,3.813,0,0,0,.519-.9,4.565,4.565,0,0,0,.263-.869,4.341,4.341,0,0,0,.07-.724,5.192,5.192,0,0,0-.122-1.138,4.183,4.183,0,0,0-.449-1.1,6.35,6.35,0,0,0-.893-1.167,14.25,14.25,0,0,0-1.447-1.29l-.554-.438a13.962,13.962,0,0,1-1.167-.992,5.4,5.4,0,0,1-.747-.817,2.534,2.534,0,0,1-.158-2.772,2.113,2.113,0,0,1,.875-.788,2.708,2.708,0,0,1,1.243-.28,4.535,4.535,0,0,1,1.167.134,2.776,2.776,0,0,1,.741.315,1.949,1.949,0,0,1,.42.35,1.43,1.43,0,0,1,.181.257,1.827,1.827,0,0,1,.117.3c.035.128.064.251.093.379a2.875,2.875,0,0,1,.047.315.516.516,0,0,0,.047.187.111.111,0,0,0,.117.07c.047,0,.082-.035.105-.111a1.262,1.262,0,0,0,.029-.344c0-.677,0-1.167.041-1.529s.035-.537.041-.583a.105.105,0,0,0-.041-.105.239.239,0,0,0-.157-.035h-.268a2.484,2.484,0,0,1-.426-.082,7.481,7.481,0,0,0-.823-.146,9.107,9.107,0,0,0-1.033-.053,5.087,5.087,0,0,0-2.194.455,3.343,3.343,0,0,0-1.418,1.255,3.408,3.408,0,0,0-.508,1.873,4.171,4.171,0,0,0,.111,1,3.776,3.776,0,0,0,.391,1.015,5.918,5.918,0,0,0,.794,1.085,12.162,12.162,0,0,0,1.289,1.219l.9.735c.426.35.788.671,1.079.963a5.815,5.815,0,0,1,.712.84,3.038,3.038,0,0,1,.379.834,3.26,3.26,0,0,1,.117.945,2.692,2.692,0,0,1-.175.951,2.532,2.532,0,0,1-1.418,1.459,3.186,3.186,0,0,1-1.255.239,4.24,4.24,0,0,1-.98-.111,3.232,3.232,0,0,1-.881-.35,2.339,2.339,0,0,1-.683-.63,2.46,2.46,0,0,1-.4-.939,2.636,2.636,0,0,1-.052-.408v-.327a.382.382,0,0,0,0-.169.129.129,0,0,0-.222.023.869.869,0,0,0-.053.245,2.6,2.6,0,0,1-.035.467c-.035.2,0,.444-.041.724a6.831,6.831,0,0,0,0,.916,3.562,3.562,0,0,0,0,.408.445.445,0,0,0,.076.21.582.582,0,0,0,.2.14,5.468,5.468,0,0,0,1.29.42,7.2,7.2,0,0,0,1.377.117Z" transform="translate(-240.726 -105.378)" fill="#2f2f2f"/>
 <path d="M265.61,90h16.174v15.6h-.1l-7.714-5.712V94.271h.1l1.686,2.147v2.713l3.279,1.231V92.614h-10.7v7.725l3.3-1.214V96.418l1.657-2.136h.128v5.636l-7.673,5.707h-.1v-15.6Z" transform="translate(-213.936 -90)" fill="#d2ab67" fill-rule="evenodd"/>
 <path d="M197.113,164.242v1.867H198.4a1.622,1.622,0,0,0,.986-.228.9.9,0,0,0,.286-.753.811.811,0,0,0-.268-.694,1.75,1.75,0,0,0-1-.2Zm-.741-.654h2.147a4.75,4.75,0,0,1,.77.047,1.47,1.47,0,0,1,.443.152,1.3,1.3,0,0,1,.531.531,1.675,1.675,0,0,1,.181.805,1.534,1.534,0,0,1-.187.77,1.33,1.33,0,0,1-.583.5.753.753,0,0,1,.455.3,1.605,1.605,0,0,1,.175.724l.064.916a1.376,1.376,0,0,0,.076.438.362.362,0,0,0,.175.2v.158h-.869a1.985,1.985,0,0,1-.146-.741h0l-.047-.724a1.033,1.033,0,0,0-.239-.724,1.868,1.868,0,0,0-.992-.163h-1.219v2.375h-.747v-5.543Zm6.051,5.543v-5.543h3.95v.689h-3.221v1.657h2.958v.648h-2.958v1.861h3.268v.694Zm5.45-1.826h.723a1.254,1.254,0,0,0,.4.957,1.459,1.459,0,0,0,1.039.362,1.693,1.693,0,0,0,1.015-.274.863.863,0,0,0,.368-.735c0-.426-.461-.747-1.389-.969H209.9a3.687,3.687,0,0,1-1.494-.583,1.208,1.208,0,0,1-.362-.934,1.464,1.464,0,0,1,.543-1.167,2.164,2.164,0,0,1,1.441-.449,2.071,2.071,0,0,1,1.441.473,1.675,1.675,0,0,1,.537,1.3h-.689a1.2,1.2,0,0,0-.379-.852,1.371,1.371,0,0,0-.934-.3,1.488,1.488,0,0,0-.881.239.765.765,0,0,0-.333.648c0,.432.455.747,1.371.963.134.029.239.053.309.076h.082a3.091,3.091,0,0,1,1.167.461,1.253,1.253,0,0,1,.344.455,1.534,1.534,0,0,1,.117.583,1.57,1.57,0,0,1-.584,1.278,2.333,2.333,0,0,1-1.552.473,2.229,2.229,0,0,1-1.57-.514,1.972,1.972,0,0,1-.584-1.459Zm6.763-1.167H215.9a1.488,1.488,0,0,0,.916-.21,1.114,1.114,0,0,0,0-1.43,1.353,1.353,0,0,0-.869-.216h-1.319v1.826Zm-.753,3V163.6h2.042a4.056,4.056,0,0,1,.753.053,1.472,1.472,0,0,1,.467.158,1.23,1.23,0,0,1,.513.548,1.827,1.827,0,0,1,.181.846,1.752,1.752,0,0,1-.181.817,1.394,1.394,0,0,1-.992.735,5.356,5.356,0,0,1-.887.047h-1.167v2.334Zm5.788-2.766a2.555,2.555,0,0,0,.49,1.663,1.832,1.832,0,0,0,2.713,0,3.11,3.11,0,0,0,0-3.332,1.844,1.844,0,0,0-2.713,0A2.573,2.573,0,0,0,219.671,166.378Zm-.782,0a3.081,3.081,0,0,1,.7-2.147,2.8,2.8,0,0,1,3.857,0,3.67,3.67,0,0,1,0,4.294,2.8,2.8,0,0,1-3.857,0,3.087,3.087,0,0,1-.7-2.147Zm6.815,2.766V163.6h.823l2.591,4.026c.058.088.105.169.152.251a1.4,1.4,0,0,1,.1.216V163.6h.718v5.543h-.817l-2.643-4.084a2.082,2.082,0,0,1-.111-.193c-.035-.07-.064-.14-.093-.216v4.493Zm6.086-1.826h.729a1.266,1.266,0,0,0,.4.957,1.488,1.488,0,0,0,1.044.362,1.675,1.675,0,0,0,1.009-.274.858.858,0,0,0,.374-.735c0-.426-.461-.747-1.389-.969h-.128a3.651,3.651,0,0,1-1.494-.583,1.167,1.167,0,0,1-.362-.934,1.464,1.464,0,0,1,.543-1.167,2.153,2.153,0,0,1,1.441-.449A2.083,2.083,0,0,1,235.4,164a1.675,1.675,0,0,1,.537,1.3h-.724a1.2,1.2,0,0,0-.374-.852,1.376,1.376,0,0,0-.933-.3,1.488,1.488,0,0,0-.881.239.764.764,0,0,0-.333.648c0,.432.455.747,1.371.963l.309.076h.082a3.09,3.09,0,0,1,1.167.461,1.169,1.169,0,0,1,.339.455,1.435,1.435,0,0,1,.117.583,1.57,1.57,0,0,1-.583,1.278,2.37,2.37,0,0,1-1.552.473,2.228,2.228,0,0,1-1.57-.514,2,2,0,0,1-.583-1.459Zm6.033,1.826V163.6h.753v5.543Zm2.917,0V163.6h2.235a2.106,2.106,0,0,1,1.3.338,1.219,1.219,0,0,1,.426,1.015,1.307,1.307,0,0,1-.2.735,1.237,1.237,0,0,1-.583.461,1.261,1.261,0,0,1,.782.449,1.377,1.377,0,0,1,.28.887,1.529,1.529,0,0,1-.508,1.208,1.984,1.984,0,0,1-1.365.449Zm.753-3.215h1.319a1.406,1.406,0,0,0,.858-.21.77.77,0,0,0,.28-.659.735.735,0,0,0-.268-.624,1.318,1.318,0,0,0-.805-.2h-1.383Zm0,2.544h1.529a1.325,1.325,0,0,0,.875-.251.951.951,0,0,0,.292-.741.812.812,0,0,0-.3-.706,1.586,1.586,0,0,0-.951-.228h-1.441v1.9Zm5.286.671V163.6h.718v4.843h2.76v.7Zm5.053,0V163.6h3.95v.689h-3.2v1.657h2.958v.648h-2.958v1.85h3.267v.694Zm8.974,0V163.6h.759v4.843h2.76v.7Zm4.738-2.1V163.6h.753v3.448a1.622,1.622,0,0,0,.344,1.167,1.692,1.692,0,0,0,2.13,0,1.633,1.633,0,0,0,.35-1.167V163.6h.759v3.443a2.289,2.289,0,0,1-3.816,1.669,2.415,2.415,0,0,1-.519-1.692Zm5.753,2.1,1.9-2.836-1.8-2.707h.922l1.319,2.054,1.336-2.054h.881l-1.8,2.69,1.9,2.853h-.928l-1.424-2.241-1.389,2.241Zm6.086-2.1V163.6h.747v3.448a1.651,1.651,0,0,0,.344,1.167,1.412,1.412,0,0,0,1.068.373,1.4,1.4,0,0,0,1.068-.379,1.634,1.634,0,0,0,.35-1.167v-3.448h.758v3.443a2.013,2.013,0,0,1-2.264,2.252,2.036,2.036,0,0,1-1.558-.584,2.445,2.445,0,0,1-.513-1.692Zm6.932-2.789v1.856H285.6a1.623,1.623,0,0,0,.986-.228.9.9,0,0,0,.286-.753.811.811,0,0,0-.268-.694,1.75,1.75,0,0,0-1-.2Zm-.741-.654h2.153a4.734,4.734,0,0,1,.764.047,1.418,1.418,0,0,1,.443.152,1.26,1.26,0,0,1,.531.531,1.676,1.676,0,0,1,.187.805,1.482,1.482,0,0,1-.193.77,1.33,1.33,0,0,1-.583.5.77.77,0,0,1,.461.3,1.7,1.7,0,0,1,.169.724l.064.916a1.569,1.569,0,0,0,.076.438.362.362,0,0,0,.175.2v.158h-.881a1.981,1.981,0,0,1-.146-.741h0l-.047-.724a1.038,1.038,0,0,0-.233-.724,1.908,1.908,0,0,0-1-.163H284.3v2.375h-.747v-5.543Zm7.813,5.543h-.753v-2.223l-2.054-3.32h.928l1.482,2.626,1.476-2.626h.881l-1.972,3.268v2.276Z" transform="translate(-185.093 -120.597)" fill="#2f2f2f"/>
</g>
</svg>