<?xml version="1.0" encoding="UTF-8" standalone="no"?>
<!-- Created with Inkscape (http://www.inkscape.org/) -->
<svg
   xmlns:svg="http://www.w3.org/2000/svg"
   xmlns="http://www.w3.org/2000/svg"
   version="1.0"
   width="647.12"
   height="123.97"
   id="svg2">
  <defs
     id="defs4">
    <clipPath
       id="clipPath2418">
      <path
         d="M 0,0 L 419.528,0 L 419.528,595.276 L 0,595.276 L 0,0 z"
         id="path2420" />
    </clipPath>
  </defs>
  <g
     transform="translate(-30.726865,-23.245925)"
     id="layer1">
    <g
       transform="matrix(7.1279593,0,0,-7.1279593,282.31586,94.554296)"
       id="g2422">
      <path
         d="M 0,0 C 0,-1.153 -0.465,-1.64 -1.219,-1.884 C -1.995,-2.128 -3.281,-2.261 -4.655,-2.261 C -6.007,-2.261 -7.271,-2.128 -8.047,-1.884 C -8.8,-1.64 -9.266,-1.153 -9.266,0 L -9.266,8.002 L -13.544,8.002 L -13.544,-0.798 C -13.544,-1.796 -13.477,-2.483 -13.233,-3.081 C -12.125,-5.719 -7.426,-5.985 -4.633,-5.985 C -1.862,-5.985 2.837,-5.719 3.946,-3.081 C 4.19,-2.483 4.256,-1.796 4.256,-0.798 L 4.256,8.002 L 0,8.002 L 0,0 z M 49.942,-5.475 L 54.087,-5.475 L 54.087,8.002 L 49.942,8.002 L 49.942,-5.475 z M 42.627,0.067 L 33.139,8.002 L 28.928,8.002 L 28.928,-5.475 L 33.095,-5.475 L 33.095,2.638 L 42.76,-5.475 L 46.639,-5.475 L 46.639,8.002 L 42.627,8.002 L 42.627,0.067 z M 23.053,7.825 C 21.657,8.268 19.507,8.601 16.448,8.601 C 13.411,8.601 11.261,8.268 9.864,7.825 C 7.116,6.938 6.872,4.633 6.85,1.308 C 6.85,-1.995 7.049,-4.322 9.842,-5.209 C 11.239,-5.653 13.389,-5.985 16.448,-5.985 C 19.529,-5.985 21.679,-5.653 23.076,-5.209 C 25.869,-4.322 26.068,-1.995 26.068,1.308 C 26.046,4.633 25.802,6.938 23.053,7.825 M 20.15,-1.973 C 19.329,-2.15 18.221,-2.283 16.448,-2.283 C 14.674,-2.283 13.633,-2.15 12.812,-1.973 C 11.283,-1.64 11.061,-0.931 11.061,1.286 C 11.061,3.835 11.283,4.367 12.812,4.677 C 13.633,4.832 14.674,4.965 16.448,4.965 C 18.221,4.965 19.329,4.832 20.15,4.677 C 21.679,4.367 21.901,3.835 21.901,1.286 C 21.901,-0.931 21.679,-1.64 20.15,-1.973 M -19.192,-1.068 L -23.554,1.776 L -15.561,8.002 L -21.635,8.002 L -29.748,1.529 L -29.748,8.002 L -33.893,8.002 L -33.893,-5.475 L -29.748,-5.475 L -29.748,-2.815 L -26.857,-0.64 L -21.852,-3.972 C -19.968,-5.235 -18.217,-5.524 -16.975,-5.524 C -15.845,-5.524 -15.136,-5.28 -15.136,-5.28 L -15.136,-2.132 C -16.909,-2.243 -18.483,-1.534 -19.192,-1.068"
         id="path2424"
         style="fill:#00023d;fill-opacity:1;fill-rule:nonzero;stroke:none" />
    </g>
  </g>
</svg>
