<svg version="1.1" id="Layer_1" xmlns="http://www.w3.org/2000/svg" xmlns:xlink="http://www.w3.org/1999/xlink" x="0px" y="0px" viewBox="0 0 158.5 43" style="enable-background:new 0 0 158.5 43;" xml:space="preserve">
 <style type="text/css">
  .st0{fill:#E01F27;}
	.st1{fill-rule:evenodd;clip-rule:evenodd;fill:#E01F27;}
	.st2{fill:#FCD20A;}
	.st3{fill:#FCD800;}
	.st4{fill:#F8A81B;}
	.st5{fill:#F9BB16;}
	.st6{fill:#F9B517;}
	.st7{fill:#FAC113;}
	.st8{fill:#F7A11C;}
	.st9{fill:#F7991D;}
	.st10{fill:#F9BD15;}
	.st11{fill:#F9A81A;}
	.st12{fill:#F79A1D;}
 </style>
 <g>
  <path class="st0" d="M65.3,16.3c-0.4-1.3-0.4-3.2-2.6-3.1c-2.1,0-3.2,1.5-3.2,3.2c0,2.7,6.9,3.3,7.5,8.8c0.3,3.3-2.9,8.8-9.4,8.9
		c-2.6,0-5.9-1.2-6-6.7l4.7-1c0,1.4-0.1,3.9,2.6,3.9c2,0,3.1-1.9,3.3-3.4c0.4-3.5-7.4-4.5-7.3-8.9c0-4.1,2.7-8.4,9.1-8.4
		c6.4,0.1,5.5,5.7,5.5,5.7L65.3,16.3z">
  </path>
  <path class="st1" d="M74.9,19.8l-2.5,9.9c0.6,0.9,1.3,1.3,2.1,1.3c0.6,0,1.1-0.2,1.6-0.8c0.5-0.6,1-1.8,1.5-3.5l1-3.8
		c0.4-1.7,0.5-2.9,0.3-3.5c-0.2-0.6-0.6-0.9-1.2-0.8C76.8,18.5,75.9,19,74.9,19.8 M71.8,15.8h3.8L75.1,18h0.1
		c0.5-0.6,1.3-1.2,2.2-1.7c0.9-0.5,1.8-0.8,2.8-0.8c1.6,0,2.6,0.6,3,1.8c0.4,1.2,0.3,3-0.3,5.3L81.7,27c-0.6,2.3-1.4,4.1-2.4,5.3
		c-1,1.2-2.3,1.8-3.9,1.8c-0.5,0-1.1-0.1-1.6-0.4c-0.5-0.3-1.2-0.8-2-1.5l-2.5,10h-4.1L71.8,15.8z">
  </path>
  <path class="st1" d="M107.3,22h-4.1l0.2-0.8c0.2-0.7,0.1-1.2-0.3-1.6c-0.3-0.4-0.9-0.5-1.6-0.5c-0.7,0-1.3,0.2-1.9,0.5
		c-0.5,0.4-0.9,0.9-1.1,1.6l-1.8,7.1c-0.2,0.7-0.1,1.2,0.3,1.6c0.3,0.3,0.9,0.5,1.6,0.5c0.7,0,1.3-0.2,1.9-0.5
		c0.5-0.4,0.9-0.9,1.1-1.6l0.3-1.1h4.1l0,0.1c-0.6,2.4-1.6,4.1-3,5.2c-1.4,1.1-3.1,1.6-5.2,1.6c-2.1,0-3.5-0.5-4.4-1.6
		c-0.9-1.1-1-2.8-0.4-5.2l1.3-5c0.6-2.4,1.6-4.1,3-5.2c1.4-1.1,3.1-1.6,5.2-1.6c2,0,3.4,0.5,4.3,1.6S107.8,19.7,107.3,22">
  </path>
  <path class="st1" d="M121.9,25.8H113l-0.6,2.4c-0.2,0.9-0.2,1.5,0.2,2c0.3,0.4,0.9,0.6,1.6,0.6c0.9,0,1.5-0.3,2-0.7
		c0.5-0.5,0.8-1.1,1-1.8h4.1c-0.6,1.9-1.5,3.3-2.9,4.3c-1.3,1-3,1.5-5.1,1.6c-2,0-3.4-0.6-4.3-1.7c-0.9-1.1-1.1-2.7-0.6-4.7l1.5-5.9
		c0.5-2,1.5-3.5,3-4.7c1.4-1.1,3.2-1.7,5.1-1.7c1.9,0,3.3,0.6,4.2,1.7c0.9,1.1,1.1,2.6,0.7,4.4L121.9,25.8z M113.9,22.4h4.8l0.2-1
		c0.2-0.8,0.2-1.4-0.1-1.9c-0.3-0.5-0.8-0.7-1.6-0.7c-0.8,0-1.5,0.2-2,0.7c-0.5,0.5-0.8,1.1-1,1.9L113.9,22.4z">
  </path>
  <path class="st1" d="M146.3,25.8h-8.9l-0.6,2.4c-0.2,0.9-0.1,1.5,0.2,2c0.3,0.4,0.9,0.6,1.6,0.6c0.9,0,1.5-0.3,2-0.7
		c0.5-0.5,0.8-1.1,1-1.8h4.1c-0.6,1.9-1.5,3.3-2.9,4.3c-1.3,1-3,1.5-5.1,1.6c-2,0-3.4-0.6-4.3-1.7c-0.9-1.1-1.1-2.7-0.6-4.7l1.5-5.9
		c0.5-2,1.5-3.5,3-4.7c1.4-1.1,3.2-1.7,5.1-1.7c1.9,0,3.3,0.6,4.2,1.7c0.9,1.1,1.1,2.6,0.7,4.4L146.3,25.8z M138.3,22.4h4.8l0.2-1
		c0.2-0.8,0.2-1.4-0.1-1.9c-0.3-0.5-0.8-0.7-1.6-0.7c-0.8,0-1.5,0.2-2,0.7c-0.5,0.5-0.9,1.1-1.1,1.9L138.3,22.4z">
  </path>
  <path class="st1" d="M151,20h-2.1l0.8-3.4h2.1l1.6-6.2h4.1l-1.6,6.2h2.6l-0.9,3.4h-2.6l-2.3,9.2c-0.1,0.4,0,0.8,0.3,1
		c0.3,0.2,0.7,0.3,1.3,0.3c0.3,0,0.6,0,0.8,0l-0.9,3.5c-0.8,0.1-1.6,0.2-2.4,0.2c-1.3,0-2.4-0.3-3-0.8c-0.7-0.6-0.8-1.5-0.5-2.8
		L151,20z">
  </path>
  <path class="st0" d="M125.3,28.3l2.9-11.5l1.6-6.4h4.1l-1.6,6.4l-4.9,19.2c-0.6,2.4-1.6,4.1-3,5.2c-1.4,1.1-3.1,1.6-5.2,1.6
		c-2.1,0-3.5-0.5-4.4-1.6c-0.9-1.1-1-2.8-0.4-5.2l4.1,0l-0.3,1.1c-0.2,0.7-0.1,1.2,0.3,1.6c0.3,0.4,0.9,0.5,1.6,0.5
		c0.7,0,1.3-0.2,1.9-0.5c0.5-0.4,0.9-0.9,1.1-1.6l0.4-1.5L125.3,28.3z">
  </path>
  <polygon class="st1" points="87.9,15.8 92,15.8 87.5,33.8 83.4,33.8 	">
  </polygon>
  <polygon class="st1" points="92.5,14.1 88.4,14.1 89.3,10.3 93.4,10.3 	">
  </polygon>
  <g>
   <path class="st2" d="M41.5,24.6c-1.2,1.2-2.9,1.5-3.6,0.8c-0.7-0.7-0.3-2.4,0.9-3.6c1.2-1.2,2.9-1.6,3.5-0.9
			C43.1,21.6,42.7,23.4,41.5,24.6">
   </path>
   <path class="st3" d="M46.5,24.4c-0.9,1-2.1,1.3-2.6,0.8c-0.6-0.5-0.3-1.8,0.5-2.7c0.9-0.9,2.1-1.4,2.6-0.9
			C47.6,22.1,47.3,23.4,46.5,24.4">
   </path>
   <path class="st4" d="M25.9,18.3C24.3,18,22,18.5,20.5,20c-1.6,1.6-2.8,3.8-2.2,5.6c0.2,0.7,1.3,1.5,2.2,1.5
			c1.7,0.1,3.6-0.7,4.9-1.9c1.4-1.3,2.2-3.2,2.2-4.5c0-0.3,0-0.5-0.1-0.8C27.3,19.2,26.6,18.4,25.9,18.3">
   </path>
   <path class="st5" d="M34.8,24.7c-1.6,1.6-4,2.1-5,1.2c-0.9-0.9-0.4-3.2,1.3-4.8c1.6-1.6,3.9-1.9,4.8-1
			C36.9,21.1,36.4,23.2,34.8,24.7">
   </path>
   <path class="st2" d="M45.5,17.1c-1,1.4-2.6,1.9-3.4,1.4c-0.8-0.6-0.8-2.3,0.2-3.6c1-1.4,2.6-2,3.4-1.5
			C46.5,13.9,46.5,15.7,45.5,17.1">
   </path>
   <path class="st3" d="M49.4,18.6c-0.8,1.1-2,1.6-2.6,1.2c-0.7-0.5-0.6-1.8,0.2-2.9c0.8-1.1,2-1.7,2.7-1.3
			C50.3,16,50.2,17.5,49.4,18.6">
   </path>
   <path class="st6" d="M32.5,12.8c-2,2.4-5.1,3.4-6.4,2.2c-1.5-1.5-1.6-3.9,0.7-6.7c2.4-3.1,5.1-3.2,6.6-2
			C34.7,7.3,34.5,10.4,32.5,12.8">
   </path>
   <path class="st7" d="M40.1,15.2c-1.5,2.5-3.8,2.5-4.8,1.7c-1-0.8-0.7-3.2,0.7-4.9c1.5-1.7,3.8-2.4,4.7-1.5
			C41.5,11.3,41.2,13.2,40.1,15.2">
   </path>
   <path class="st8" d="M23.8,0.4c-5.3-2.2-10.6,4.9-10.2,9c0.3,3.1,2.3,4.3,5.1,3.9c0,0,0.1,0,0.1,0c2.9-0.4,5.4-2.8,6.5-4.9
			c0.4-0.7,0.7-1.6,0.8-2.5c0-0.3,0.1-0.7,0.1-1.1C26.2,2.9,25.5,1.1,23.8,0.4">
   </path>
   <path class="st9" d="M12.7,16.4c-1.2,0.2-2.4,0.7-3.4,1.4c-1.7,1-3.1,2.3-3.9,3.9c-1,1.9-0.9,3.7,0,4.9c0.4,0.7,0.9,1,1.5,1.3
			c0.3,0.1,0.6,0.2,0.9,0.3c0.9,0.2,1.9,0.2,3.1-0.1c3.3-0.9,7.2-4.5,7.1-8C18,16.8,15.5,15.8,12.7,16.4">
   </path>
   <path class="st3" d="M45.5,29.7c-0.9,0.9-2.1,1.2-2.7,0.7c-0.5-0.5-0.2-1.8,0.7-2.7c0.9-0.9,2.2-1.3,2.7-0.7
			C46.8,27.5,46.4,28.8,45.5,29.7">
   </path>
   <path class="st2" d="M39.7,31.4c-1.3,1.1-2.9,1.4-3.5,0.7c-0.6-0.7-0.1-2.2,1.1-3.3c1.3-1.1,2.8-1.4,3.4-0.7
			C41.5,28.8,41,30.3,39.7,31.4">
   </path>
   <path class="st10" d="M32,33.8c-1.7,1.5-3.8,1.8-4.7,0.9c-0.9-1-0.2-3,1.5-4.4c1.7-1.5,3.7-1.8,4.6-0.9
			C34.3,30.3,33.7,32.3,32,33.8">
   </path>
   <path class="st11" d="M22.5,30.5c-3.4-1-8.8,3.4-8,6.8c0.2,0.8,1.3,1.5,2.1,1.6c3.4,0.3,7.2-3.3,7.4-5.9c0-0.3,0-0.6,0-0.9
			C23.8,31.3,23.1,30.7,22.5,30.5">
   </path>
   <path class="st12" d="M13.3,34.3c-0.6-2.6-3.8-2.4-5.8-1.8c-0.8,0.2-1.6,0.5-2.3,0.9c-1.1,0.5-2,1.2-2.8,1.9c-1,1-2.7,3.1-2.4,5.2
			c0.3,2.2,3.1,2.8,5.6,2.3C8.6,42.1,14.3,38.3,13.3,34.3">
   </path>
  </g>
 </g>
</svg>